<?xml version="1.0" standalone="no"?>
<!DOCTYPE svg PUBLIC "-//W3C//DTD SVG 1.1//EN" "http://www.w3.org/Graphics/SVG/1.1/DTD/svg11.dtd" >
<svg xmlns="http://www.w3.org/2000/svg">
<metadata>
This is a custom SVG webfont generated by Font Squirrel.
Copyright   : Copyright c 2010 by Svetoslav Simov All rights reserved
Designer    : Svetoslav Simov
Foundry     : Svetoslav Simov
Foundry URL : httpfontfabriccom
</metadata>
<defs>
<font id="HeroRegular" horiz-adv-x="1019" >
<font-face units-per-em="2048" ascent="1536" descent="-512" />
<missing-glyph horiz-adv-x="452" />
<glyph unicode=" "  horiz-adv-x="452" />
<glyph unicode="&#x09;" horiz-adv-x="452" />
<glyph unicode="&#xa0;" horiz-adv-x="452" />
<glyph unicode="!" horiz-adv-x="303" d="M57 41q0 -33 32 -47t64.5 -2t32.5 49v57q0 37 -32.5 50.5t-64.5 -1t-32 -49.5v-57zM57 279v731q0 39 31 53t61.5 -1t30.5 -52v-731q0 -37 -30.5 -51.5t-61.5 1t-31 50.5z" />
<glyph unicode="&#x22;" horiz-adv-x="387" d="M35 844v178q0 39 28.5 54.5t58.5 0t30 -54.5v-178q0 -35 -30 -49.5t-58.5 0t-28.5 49.5zM225 844v178q0 39 29 54.5t56.5 0t27.5 -54.5v-178q0 -35 -27.5 -49.5t-56.5 0t-29 49.5z" />
<glyph unicode="#" horiz-adv-x="862" d="M23 393q0 23 18 40.5t41 17.5h90l29 155h-80q-39 0 -53.5 29t0 57.5t53.5 30.5h100l25 143q16 96 22 144q6 53 62 53q59 0 55 -70l-49 -270h221l49 287q6 39 38 49t57.5 -10.5t17.5 -55.5l-49 -270h75q37 0 51.5 -27.5t0 -57.5t-51.5 -32h-94l-26 -155h82q25 0 43 -15.5 t18 -42t-16.5 -42t-44.5 -15.5h-101l-49 -293q-12 -39 -42 -52.5t-53.5 6t-17.5 58.5l48 281h-222l-51 -299q-4 -45 -49 -49q-43 -8 -61 24q-10 18 -5 41l50 283h-72q-23 0 -41 16t-18 41zM283 446h235l27 166h-234z" />
<glyph unicode="$" horiz-adv-x="1124" d="M57 223q-8 33 17.5 54.5t56.5 15.5t39 -41q20 -74 117.5 -119t185.5 -43v379q-76 6 -124 14.5t-104.5 26.5t-90 45t-56 75t-22.5 113q0 133 123 209t274 86v78q0 37 27.5 52.5t54.5 1t27 -53.5v-80q303 -23 376 -202q12 -31 -10 -51.5t-55 -18.5t-41 29q-49 123 -270 139 v-367q78 -6 126 -13t109.5 -24.5t96 -44t60 -74t25.5 -110.5q0 -84 -37.5 -145.5t-101 -96t-132.5 -53t-146 -22.5v-88q0 -31 -27 -46.5t-54.5 -2t-27.5 48.5v90q-68 4 -128 17t-121.5 40t-106 74t-60.5 108zM197 739q0 -45 18 -75.5t61 -48t85 -24.5t112 -13v354 q-63 -2 -121.5 -20.5t-106.5 -64t-48 -108.5zM582 90q76 4 138 23.5t110.5 67.5t48.5 116q0 45 -22.5 77t-68 48t-91.5 24.5t-115 12.5v-369z" />
<glyph unicode="%" horiz-adv-x="1017" d="M20 844q0 94 61.5 163.5t160.5 69.5q94 0 158.5 -66.5t64.5 -166.5q0 -92 -62.5 -165t-160.5 -73q-94 0 -158 67t-64 171zM66.5 9.5q-9.5 27.5 7.5 56.5l725 1011q16 27 44.5 24t42 -25.5t-0.5 -55.5l-719 -1020q-25 -31 -57.5 -24.5t-42 34zM123 844q0 -53 32.5 -95 t86.5 -42q51 0 82.5 37.5t35.5 101.5q-2 51 -34.5 91t-83.5 40q-49 0 -84 -39t-35 -94zM489 223q0 92 62.5 163t159.5 71q94 0 158.5 -67.5t64.5 -166.5q0 -94 -62.5 -166.5t-160.5 -72.5q-94 0 -158 67.5t-64 171.5zM592 222q0 -52 33.5 -95t85.5 -43q53 0 83.5 39 t34.5 100q-2 51 -33.5 91t-84.5 40q-49 0 -84 -40t-35 -92z" />
<glyph unicode="&#x26;" d="M39 297q0 84 55.5 149.5t136.5 79.5q-78 16 -123 84t-45 150q0 102 61.5 174t148.5 102.5t190 30.5q106 0 191 -24.5t146.5 -87t61.5 -156.5q0 -35 -27.5 -48.5t-56 0t-28.5 48.5q0 84 -82 121.5t-205 37.5q-115 0 -200 -53t-85 -147q0 -184 283 -185h477q33 0 47 -26.5 t2 -53t-49 -26.5h-68v-172q0 -90 -33.5 -154.5t-94 -100.5t-130 -52.5t-153.5 -16.5q-80 0 -149.5 16.5t-132 51.5t-100.5 100.5t-38 157.5zM152 293q0 -111 96 -164t213 -53q74 0 137.5 17.5t114.5 68.5t51 131v174h-303q-66 0 -115 -7t-96 -23.5t-72.5 -53.5t-25.5 -90z " />
<glyph unicode="'" horiz-adv-x="249" d="M55 842v178q0 37 28 52t56.5 0t28.5 -52v-178q0 -35 -28.5 -48.5t-56.5 0t-28 48.5z" />
<glyph unicode="(" horiz-adv-x="436" d="M37 475q0 170 62.5 330t174.5 264q27 27 62 20.5t42 -34t-24 -64.5q-94 -82 -144 -222t-50 -290.5t51 -285t149 -216.5q20 -16 23.5 -42.5t-16.5 -47.5q-45 -41 -82 2q-121 104 -184.5 260t-63.5 326z" />
<glyph unicode=")" horiz-adv-x="448" d="M16.5 -85q-6.5 30 22.5 58q100 78 150.5 212t50.5 286q0 154 -52.5 298t-150.5 228q-29 25 -18.5 57.5t41 41t59.5 -18.5q117 -102 180 -264t63 -334t-64.5 -329.5t-180.5 -260.5q-27 -27 -60.5 -15.5t-40 41.5z" />
<glyph unicode="*" horiz-adv-x="456" d="M25 948.5q-2 26.5 21.5 38.5t57.5 -2l70 -45l-2 78q0 35 25.5 49t50 0t22.5 -47l-4 -82l56 51q27 20 55.5 8t29.5 -38.5t-30 -51.5l-62 -43l70 -41q37 -18 21.5 -57t-52.5 -33q-16 2 -30 12l-64 52l6 -92q0 -33 -25.5 -47.5t-48 0t-20.5 49.5l2 90l-59 -56q-43 -29 -76 7 q-29 33 -2 63q8 10 22 16l76 37l-78 41q-30 17 -32 43.5z" />
<glyph unicode="+" horiz-adv-x="882" d="M57 483q0 27 16.5 41.5t43.5 14.5h245v252q0 25 16.5 41t45.5 16q25 0 42 -17.5t17 -39.5v-252h246q39 0 54.5 -27t0 -55.5t-54.5 -30.5h-246v-248q0 -27 -17 -43t-42 -16q-61 0 -62 59v248h-245q-25 0 -42.5 16t-17.5 41z" />
<glyph unicode="," horiz-adv-x="229" d="M-6 -84l67 158q14 35 48 36t53.5 -26t3.5 -57l-74 -156q-18 -35 -49 -37t-48 22.5t-1 59.5z" />
<glyph unicode="-" horiz-adv-x="604" d="M60.5 464q-15.5 28 1 55.5t55.5 27.5h334q41 0 57 -27.5t0 -55.5t-57 -28h-334q-41 0 -56.5 28z" />
<glyph unicode="." horiz-adv-x="233" d="M18 68.5q0 31.5 20.5 50t53.5 18.5t52.5 -18.5t19.5 -50t-19.5 -51t-52.5 -19.5t-53.5 19.5t-20.5 51z" />
<glyph unicode="/" horiz-adv-x="608" d="M-23 -82l498 1169q14 31 47 33t54.5 -20.5t7.5 -57.5l-502 -1169q-16 -37 -49 -38t-51.5 25.5t-4.5 57.5z" />
<glyph unicode="0" horiz-adv-x="888" d="M43 379v301q-2 184 112.5 287.5t272.5 103.5t273.5 -103.5t113.5 -287.5v-301q2 -184 -113.5 -287.5t-273.5 -103.5t-272.5 103.5t-112.5 287.5zM158 379q-2 -137 77.5 -211t190.5 -74q115 0 194.5 71t77.5 214v301q2 143 -77.5 214t-194.5 71q-113 0 -191.5 -71 t-76.5 -214v-301z" />
<glyph unicode="1" horiz-adv-x="534" d="M83 642q-13 28 3 60l242 328q29 33 73.5 21.5t44.5 -56.5v-964q0 -31 -28.5 -44.5t-56 0t-27.5 44.5v813l-141 -199q-25 -37 -61 -34t-49 31z" />
<glyph unicode="2" horiz-adv-x="942" d="M75.5 44q-14.5 40 20.5 69l492 370q63 45 97 117t22 145q-12 98 -82 150.5t-170 52.5q-229 0 -254 -192q-4 -35 -35 -46.5t-57.5 8t-22.5 54.5q18 143 118.5 216t250.5 73q137 0 239.5 -81t126.5 -216q18 -104 -27.5 -200.5t-131.5 -162.5l-199 -155l-219 -146l243 11 h297q41 0 57.5 -27t0 -55.5t-55.5 -28.5h-651q-45 4 -59.5 44z" />
<glyph unicode="3" horiz-adv-x="940" d="M59 297q-4 49 41 61q43 12 64 -20q6 -10 6 -23q25 -213 281 -213q129 0 201.5 93.5t51 209t-134.5 177.5q-39 16 -80 16q-49 0 -86 -18l3 2q-29 -18 -62 -2t-33 51q0 29 21 45l293 272h-478q-33 0 -47 26.5t0.5 53.5t46.5 27h590q45 0 61.5 -36t-20.5 -75l-217 -213 l-92 -51q102 25 185 -18.5t126 -123t43 -173.5q0 -152 -105.5 -261.5t-266.5 -109.5q-361 0 -392 303z" />
<glyph unicode="4" horiz-adv-x="847" d="M27.5 270.5q-19.5 30.5 9.5 75.5v-2l409 698q12 31 46 33t53.5 -23.5t-0.5 -62.5l-389 -645h495v668q0 23 16.5 38t41.5 15q23 0 39 -15.5t16 -37.5v-973q0 -33 -27.5 -47.5t-56.5 -1t-29 48.5v201h-551q-53 0 -72.5 30.5z" />
<glyph unicode="5" horiz-adv-x="929" d="M45 283q-8 43 19.5 64.5t58.5 9t37 -53.5q16 -119 85.5 -164t186.5 -45q125 0 196.5 82t71.5 186t-72.5 179t-203.5 75h-297q-27 0 -44 14.5t-17 37.5v319q0 68 73 68h541q37 0 52.5 -28t1 -56.5t-53.5 -28.5h-500v-219h244q188 0 291.5 -105.5t103.5 -255.5t-104.5 -262 t-280.5 -112q-162 0 -265.5 71.5t-123.5 223.5z" />
<glyph unicode="6" horiz-adv-x="931" d="M74 328v309q0 127 36.5 214t139.5 153q121 74 273.5 58.5t248.5 -114.5q25 -25 13.5 -53.5t-38 -35.5t-55.5 18q-76 78 -223 77q-82 0 -147 -39q-133 -80 -134 -272v-59q43 76 118 113.5t157 37.5q160 0 271.5 -104.5t113.5 -263.5q2 -170 -116 -277.5t-283 -107.5 q-158 0 -266.5 98t-108.5 248zM190 328q0 -106 76 -171t185 -65q113 0 194.5 76t81.5 199q0 106 -77 181t-185 75q-131 0 -203 -84t-72 -211z" />
<glyph unicode="7" horiz-adv-x="856" d="M40 966.5q-15 28.5 1 58.5t51 30h619q53 0 70.5 -29t-9.5 -76l-522 -930q-16 -29 -53 -28q-20 0 -40 17.5t-20 37.5q0 18 6 27l490 864h-541q-37 0 -52 28.5z" />
<glyph unicode="8" horiz-adv-x="1030" d="M70 307q0 96 60 156.5t163 79.5v2q-88 25 -139.5 86t-51.5 151q0 94 60.5 162t149.5 98.5t194.5 29.5t195 -31.5t149.5 -98.5t60 -160q0 -88 -43 -145t-135 -92v-2q100 -16 156.5 -81t56.5 -159q0 -84 -39 -147.5t-104.5 -98t-139 -51t-157.5 -16.5q-82 0 -156 16.5 t-138.5 51t-103 99t-38.5 150.5zM186 303q0 -72 55.5 -120t123 -65.5t143.5 -17.5q53 0 104.5 9.5t101.5 31t81.5 63.5t31.5 99q0 70 -66.5 117t-159.5 59.5t-187.5 1t-161 -59.5t-66.5 -118zM217 784.5q0 -69.5 59.5 -116.5t144.5 -58.5t170 0t144.5 58.5t59.5 116.5 t-59.5 116.5t-144.5 58.5t-170 0t-144.5 -58.5t-59.5 -116.5z" />
<glyph unicode="9" horiz-adv-x="925" d="M49 668q-2 170 117 277.5t280 107.5q117 0 213 -60q76 -45 120 -121.5t44 -164.5v-330q0 -180 -111.5 -288.5t-287.5 -108.5q-213 0 -315 120q-20 29 -7 61t40.5 37t54.5 -20q70 -86 227 -86q139 0 213 76t74 207v76q-39 -74 -119 -112t-160 -38q-160 0 -270.5 103.5 t-112.5 263.5zM164 668q0 -109 79 -183.5t187 -74.5q121 0 198 66.5t77 158.5v70q0 131 -107 196q-63 41 -152 41q-115 0 -198.5 -75.5t-83.5 -198.5z" />
<glyph unicode=":" horiz-adv-x="260" d="M33 68.5q0 31.5 20.5 50t55.5 18.5q31 0 50 -18.5t19 -50t-19.5 -51t-49.5 -19.5q-35 0 -55.5 19.5t-20.5 51zM35 623.5q0 31.5 19.5 51t53 19.5t53 -19.5t19.5 -51t-19.5 -50t-53 -18.5t-53 18.5t-19.5 50z" />
<glyph unicode=";" horiz-adv-x="256" d="M-6 -84q-16 -35 1 -59.5t48 -22.5t49 37l74 156q16 31 -5.5 58.5t-57 26.5t-50.5 -36zM35 623.5q0 31.5 19.5 51t53 19.5t53 -19.5t19.5 -51t-19.5 -50t-53 -18.5t-53 18.5t-19.5 50z" />
<glyph unicode="&#x3c;" horiz-adv-x="514" d="M43 467q-55 45 2 100l287 275q25 29 57.5 21.5t40.5 -35t-16 -60.5l-269 -252l267 -244q27 -27 16.5 -58.5t-40.5 -37.5t-60 14z" />
<glyph unicode="=" horiz-adv-x="733" d="M61.5 418.5q14.5 27.5 51.5 30.5h469q23 0 37 -11.5t18 -27t0 -32t-18.5 -27.5t-36.5 -13h-469q-35 0 -50.5 26.5t-1 54zM63.5 597q-14.5 28 0 53.5t49.5 25.5h469q37 0 52 -25.5t-0.5 -53.5t-51.5 -28h-469q-35 0 -49.5 28z" />
<glyph unicode="&#x3e;" horiz-adv-x="542" d="M55 236.5q2 19.5 19 35.5l262 244l-262 252q-27 31 -16.5 61.5t40 34.5t56.5 -22l286 -275q57 -55 2 -100l-284 -277q-16 -14 -36 -17t-34 6t-24.5 23.5t-8.5 34z" />
<glyph unicode="?" horiz-adv-x="999" d="M23 840q23 66 70.5 113.5t110 72.5t124 34t127.5 9q80 0 159.5 -20.5t149.5 -60.5t112 -109.5t39 -155.5q-2 -63 -23.5 -110.5t-66.5 -81t-77.5 -51t-96.5 -44.5q-53 -23 -82.5 -38t-56.5 -43.5t-27 -67.5v-39q0 -33 -29.5 -46.5t-59 -1t-29.5 47.5v41q0 51 17 89 t58 67.5t70 44t86 38.5q45 20 71.5 33.5t59.5 37.5t48.5 55.5t17.5 72.5q2 115 -106.5 175.5t-235.5 60.5q-111 0 -202 -37t-120 -125q-8 -29 -40 -32t-55 17.5t-13 53.5zM358 39v43q0 27 21.5 42t47.5 15t47.5 -15t21.5 -42v-43q0 -35 -34 -48.5t-69 1t-35 47.5z" />
<glyph unicode="@" horiz-adv-x="1269" d="M35 362q0 240 170 408t411 168q246 0 413 -161t167 -415q0 -61 -10 -124.5t-33 -126t-66 -101.5t-100 -39q-127 0 -141 133q-27 -72 -96.5 -105.5t-151.5 -33.5q-152 0 -267.5 114t-117.5 273q0 176 109.5 284.5t273.5 108.5q76 0 146.5 -34.5t99.5 -104.5v35 q0 27 30.5 38t59.5 -2t29 -44v-516q0 -37 26 -37q33 0 54.5 33.5t29.5 89t11 90.5t3 69q0 203 -134 337.5t-335 134.5q-193 0 -329.5 -138.5t-136.5 -333.5q0 -113 53 -215t145 -170q127 -86 268 -86q88 0 156 27q29 12 51.5 -7.5t20.5 -50t-37 -44.5q-82 -31 -191 -31 q-182 0 -333 106q-117 82 -182.5 207t-65.5 264zM330 352q0 -113 82 -195.5t190 -82.5q94 0 167 65.5t73 155.5v100q0 106 -71 176t-167 70q-121 0 -197.5 -78t-76.5 -211z" />
<glyph unicode="A" horiz-adv-x="1155" d="M4 66l500 987q16 31 55 30q37 0 53 -30l500 -983q10 -17 10 -32q0 -23 -26 -38q-22 -12 -41.5 -12t-36.5 12q-10 8 -19 23l-129 256h-622l-135 -263q-14 -29 -47 -29h-3q-31 0 -52 22q-13 14 -13 32q0 12 6 25zM297 383h522l-260 522z" />
<glyph unicode="B" horiz-adv-x="1138" d="M127 59v936q0 25 18.5 42.5t42.5 17.5h394q51 0 100 -6.5t104.5 -27t95.5 -51t66.5 -82.5t26.5 -120q0 -145 -127 -197q205 -66 205 -258q0 -88 -38 -152.5t-101.5 -97t-136 -48t-156.5 -15.5h-433q-25 0 -43 17t-18 42zM250 109h371q307 0 307 204q0 94 -72 141.5 t-186 47.5h-420v-393zM250 608h338q266 0 266 160q0 49 -27.5 87t-71.5 56.5t-87 27.5t-86 9h-332v-340z" />
<glyph unicode="C" horiz-adv-x="1105" d="M66 543q0 203 126.5 350t321.5 176q53 8 104 8q233 0 390 -166q25 -27 11.5 -56.5t-42.5 -34.5t-55 16q-117 125 -312 125q-37 0 -78 -5q-158 -25 -253 -132t-95 -283q0 -186 124 -315.5t298 -129.5q96 0 193 47q84 45 137 113q18 27 51 21.5t47 -30.5q7 -12 7 -26 q0 -15 -9 -33q-66 -92 -180 -147q-131 -59 -248 -59q-219 0 -378.5 159.5t-159.5 401.5z" />
<glyph unicode="D" horiz-adv-x="1089" d="M66 72v913q0 29 21.5 49.5t53.5 20.5h361q158 0 273.5 -78t168.5 -195.5t53 -254t-53 -254t-169 -195.5t-273 -78h-361q-33 0 -54 21.5t-21 50.5zM184 109h318q176 0 275.5 124.5t99.5 294.5t-99.5 295t-275.5 125h-318v-839z" />
<glyph unicode="E" horiz-adv-x="1058" d="M127 74v909q0 31 21.5 51.5t54.5 20.5h700q33 0 46 -27q6 -13 7 -26q0 -14 -8 -27q-14 -27 -47 -27h-655v-373h622q33 0 46.5 -26.5t1 -53t-47.5 -26.5h-622v-360h655q33 0 48 -27q8 -14 8 -29q0 -13 -6 -25q-13 -28 -50 -28h-698q-33 0 -54.5 21.5t-21.5 52.5z" />
<glyph unicode="F" horiz-adv-x="1021" d="M127 41v942q0 29 21.5 50.5t52.5 21.5h684q33 0 46 -27q7 -13 6.5 -26t-6.5 -26q-13 -26 -46 -26h-637v-415h604q31 0 44 -26t1 -51.5t-45 -25.5h-604v-389q0 -39 -30 -55q-15 -8 -30 -8t-30 8q-31 16 -31 53z" />
<glyph unicode="G" horiz-adv-x="1169" d="M57 537q0 190 127 342.5t318 189.5q35 4 86 4q115 0 219 -40t170 -115q15 -19 14 -39q0 -11 -4 -22q-12 -32 -39.5 -37t-56.5 20q-68 78 -171 108q-57 17 -113 17q-44 0 -87 -11q-143 -33 -242.5 -148.5t-99.5 -273.5q0 -174 123 -303t283 -131h9q89 0 173 38 q88 40 141 112v219h-299q-37 0 -50 27.5t2 55.5t48 28h353q63 0 63 -62v-276q0 -37 -18 -56q-74 -96 -188 -148q-109 -50 -227 -50h-9q-217 2 -373 160q-152 155 -152 379v12z" />
<glyph unicode="H" horiz-adv-x="1132" d="M123 47v969q0 37 30 52q15 8 29 8l30 -8q30 -15 30 -52v-453h610v453q0 37 31 52q15 8 30 8t30 -8q30 -15 30 -52v-969q0 -37 -30 -53q-15 -8 -31 -9q-15 0 -29 8q-31 15 -31 54v412h-610v-412q0 -39 -30 -54q-14 -7 -28 -7l-31 9q-30 17 -30 52z" />
<glyph unicode="I" horiz-adv-x="364" d="M115 41v993q0 29 19.5 45.5t43 16.5t43 -17.5t19.5 -44.5v-993q0 -37 -32 -51q-16 -7 -31.5 -7t-31.5 7q-30 14 -30 51z" />
<glyph unicode="J" horiz-adv-x="958" d="M-12 333q0 33 26 50q29 18 60.5 3t34.5 -56q8 -109 85.5 -173.5t184.5 -64.5q125 0 220 79t95 196v581h-319q-39 0 -55.5 26.5t0 54.5t55.5 28h373q23 0 40 -15.5t19 -40.5v-634q2 -162 -128 -274.5t-300 -112.5q-156 0 -269 99q-122 107 -122 254z" />
<glyph unicode="K" horiz-adv-x="1038" d="M125 47v965q0 37 31 51q15 7 29 7q16 0 31 -8q30 -15 30 -50v-527l160 162l452 406q20 17 44 17q10 0 20 -3q35 -10 42 -40t-18 -58l-440 -389l471 -492q22 -25 22 -49q0 -9 -3 -17q-11 -32 -43 -34h-5q-29 0 -59 22l-467 494l-176 -154v-303q0 -35 -30 -51 q-15 -8 -31 -9q-15 0 -29 8q-31 15 -31 52z" />
<glyph unicode="L" horiz-adv-x="954" d="M127 61v953q0 37 31 51q15 7 30 7l31 -7q31 -14 31 -51v-905h618q41 0 58 -27q8 -13 8 -27t-8 -27q-16 -28 -58 -28h-680q-61 0 -61 61z" />
<glyph unicode="M" horiz-adv-x="1329" d="M129 45v954q0 53 44 65q9 2 17 2q32 0 52 -36l405 -631l402 631q23 36 55 36q8 0 16 -2q43 -11 43 -65v-954q0 -39 -30 -53q-15 -7 -30.5 -7t-30.5 7q-30 14 -30 53v754l-340 -529q-18 -37 -57 -37t-55 37l-340 529v-754q0 -39 -31 -53q-15 -7 -30 -7t-30 7 q-30 14 -30 53z" />
<glyph unicode="N" horiz-adv-x="1144" d="M119 47v950q0 39 24 60q18 15 39 14q8 0 18 -2q32 -8 52 -37l639 -854l-17 250v588q0 33 32 47q16 7 33 7q15 0 30 -6q31 -13 30 -48v-953q0 -41 -29 -58q-21 -12 -45 -12q-10 0 -21 2q-36 7 -52 36l-621 829l13 -227v-586q0 -39 -32 -55q-16 -8 -33 -9q-15 0 -29 8 q-31 15 -31 56z" />
<glyph unicode="O" horiz-adv-x="1234" d="M61 545q0 199 122 346t319 178q40 6 83.5 6t90.5 -6q195 -29 324.5 -176.5t129.5 -347.5q0 -250 -156.5 -406.5t-375.5 -156.5q-229 0 -383 153.5t-154 409.5zM186 541q0 -201 117 -323t295 -122q174 0 292 121t118 324q0 162 -96.5 277.5t-249.5 139.5q-37 5 -73 5.5 t-71 -5.5q-152 -23 -242 -135t-90 -282z" />
<glyph unicode="P" horiz-adv-x="1060" d="M127 43v956q0 25 17.5 41.5t43.5 16.5h359q203 0 312.5 -113t109.5 -268q0 -160 -109.5 -262.5t-316.5 -102.5h-297v-266q0 -37 -30 -51q-15 -7 -30 -7l-29 7q-30 14 -30 49zM246 420h297q154 0 232 76q77 74 77 175q0 112 -84 195q-82 82 -219 82h-303v-528z" />
<glyph unicode="Q" horiz-adv-x="1247" d="M66 545q0 203 117.5 348t316.5 176q42 5 86 5t90 -5q193 -29 321.5 -179.5t128.5 -344.5q-4 -236 -118 -361l94 -98q19 -19 19 -40q0 -9 -4 -18q-11 -32 -40.5 -38t-58.5 14l-90 96q-147 -119 -330 -118q-227 0 -379.5 152.5t-152.5 410.5zM188 541q0 -197 119 -323 t291 -126q139 0 250 94l-92 95q-19 19 -19 40q0 9 3 18q11 32 41 38q6 1 11 1q24 0 48 -22l86 -86q80 100 80 271q0 160 -97.5 276.5t-249.5 140.5q-35 5 -70.5 5.5t-72.5 -5.5q-147 -23 -237.5 -139t-90.5 -278z" />
<glyph unicode="R" horiz-adv-x="1089" d="M127 47v952q0 27 16.5 42.5t44.5 15.5h394q205 0 318.5 -101.5t113.5 -255.5q0 -129 -73 -214t-222 -109l268 -291q22 -21 23 -44q0 -8 -3 -16q-11 -32 -43 -37q-6 -1 -12 -1q-25 0 -49 18l-334 365h-321v-324q0 -35 -31 -50t-60.5 0t-29.5 50zM248 475h334 q156 0 234.5 62.5t74.5 162.5q-2 106 -85 176t-224 70h-334v-471z" />
<glyph unicode="S" horiz-adv-x="1071" d="M37 231q-3 9 -3 18q0 23 20 38.5t45 15.5q9 0 19 -2q36 -8 42 -39q29 -92 132 -130t228 -38q59 0 116.5 10.5t114 33t92.5 65.5t36 102q0 27 -6.5 48.5t-24 37t-32.5 27.5t-48 21l-51 15q-18 5 -62.5 9t-64 7t-68.5 5l-115.5 12.5t-107.5 15.5t-101.5 30.5t-75.5 49 t-57.5 74.5t-17.5 107q0 150 141.5 232.5t313.5 82.5q377 0 463 -229q10 -33 -12.5 -53.5t-56.5 -17.5t-44 30q-59 147 -348 147q-45 0 -97.5 -9t-105.5 -30.5t-88 -61.5t-35 -93q0 -35 11.5 -61.5t40 -45t54 -30t75 -19.5t83 -11t95.5 -7q219 -20 297 -47q174 -57 174 -234 q0 -90 -47.5 -157.5t-122 -104.5t-155.5 -53.5t-163 -16.5q-96 0 -189 20.5t-181 82t-113 153.5z" />
<glyph unicode="T" horiz-adv-x="976" d="M-11 971q-8 14 -8 28.5t8 28.5q15 29 50 29h860q39 0 54 -29q8 -14 8 -28.5t-8 -28.5q-15 -29 -54 -29h-371q0 -150 1 -451t1 -450q0 -29 -19 -45t-43 -16t-42 16t-18 45v901h-369q-35 0 -50 29z" />
<glyph unicode="U" horiz-adv-x="1257" d="M123 467v547q0 35 31 49q15 7 29 7q16 0 33 -8q32 -15 32 -50v-545q0 -86 30.5 -156.5t83 -113.5t118 -65.5t133 -22.5t133 22.5t116.5 65.5t83 113.5t32 156.5v545q0 39 31 54q16 8 32 8q15 0 30 -7q32 -14 32 -53v-547q0 -113 -42 -207t-112.5 -152.5t-156.5 -89 t-178.5 -30.5t-179.5 30.5t-156.5 89t-111.5 152.5t-42 207z" />
<glyph unicode="V" horiz-adv-x="1134" d="M12 989q-6 13 -5 25q0 18 13 34q21 24 54 23h5q36 -2 50 -37l426 -848l418 846q12 31 46 35t56 -19q15 -16 16 -38q0 -10 -4 -21l-479 -966q-18 -35 -53 -36h-2q-34 0 -55 40z" />
<glyph unicode="W" horiz-adv-x="1939" d="M31 991q-5 12 -5 24q0 20 16 37q23 23 54 23q4 0 7 -1q36 -3 51 -36l370 -856l361 740q12 35 54 34.5t60 -34.5l363 -740l371 856q12 33 47 39q7 1 13 1q26 0 46 -19q17 -17 17 -44q0 -11 -3 -24l-434 -977q-18 -37 -57 -38h-2q-37 0 -55 36l-363 752l-364 -752 q-14 -33 -58 -34h-2q-41 0 -57 36z" />
<glyph unicode="X" horiz-adv-x="1064" d="M45 88l395 451l-383 442q-25 27 -10.5 55.5t44.5 33.5q6 1 11 1q24 0 45 -18l371 -435l369 433q17 20 41 20q7 0 15 -2q34 -8 45 -34.5t-11 -57.5l-385 -438l397 -453q18 -22 18 -44q0 -10 -3 -20q-12 -32 -43 -34h-5q-29 0 -61 24l-377 441l-383 -441q-18 -16 -40 -22 q-9 -3 -17 -3q-11 0 -19 5q-14 8 -24 22q-9 12 -9 28q0 25 19 46z" />
<glyph unicode="Y" horiz-adv-x="1021" d="M10 1042q18 29 51 29t58 -29l375 -512l380 514q19 29 51 29h4q34 -2 48 -27q6 -11 6 -25q0 -17 -10 -36l-416 -559v-371q0 -29 -18.5 -45t-42.5 -16q-27 0 -44.5 15.5t-17.5 45.5v371l-420 557q-12 17 -12 33q0 13 8 26z" />
<glyph unicode="Z" horiz-adv-x="1017" d="M33 32q-5 11 -5 21q0 21 19 43l744 852h-672q-37 0 -50.5 25.5t0 53.5t50.5 30h788q49 0 64 -32q5 -11 5 -22q0 -22 -20 -47l-751 -841h708q37 0 54 -28q8 -14 8 -29q0 -14 -7 -27q-15 -29 -55 -31h-819q-47 0 -61 32z" />
<glyph unicode="[" horiz-adv-x="423" d="M98 -102v1210q0 29 20.5 47.5t49.5 18.5h172q43 0 60.5 -28t0 -56.5t-60.5 -28.5h-125v-1118h125q41 0 57.5 -28t-1 -56.5t-56.5 -28.5h-172q-29 0 -49.5 20.5t-20.5 47.5z" />
<glyph unicode="\" horiz-adv-x="563" d="M-27 1073q-14 35 7.5 59.5t54.5 21.5t47 -38l498 -1186q16 -37 -4.5 -62.5t-54.5 -22.5t-50 38h-2z" />
<glyph unicode="]" horiz-adv-x="423" d="M19.5 -142.5q-15.5 27.5 2 56.5t52.5 29h121v1124h-121q-33 0 -47.5 27.5t0 53.5t47.5 26h174q27 0 48 -19.5t21 -46.5v-1212q0 -27 -21.5 -46.5t-47.5 -19.5h-174q-39 0 -54.5 27.5z" />
<glyph unicode="^" horiz-adv-x="602" d="M50 837.5q-7 26.5 11 53.5l168 209q27 31 58.5 30.5t56.5 -28.5l168 -213q25 -27 11.5 -53.5t-43 -27.5t-54.5 21l-141 179l-138 -179q-27 -31 -58.5 -24.5t-38.5 33z" />
<glyph unicode="_" horiz-adv-x="718" d="M-8.5 -91q-14.5 28 1 55.5t50.5 27.5h573q33 0 46.5 -27.5t1 -55.5t-47.5 -28h-573q-37 0 -51.5 28z" />
<glyph unicode="`" horiz-adv-x="497" d="M84 1169.5q16 30.5 49 32.5t57 -28l125 -156q16 -23 5 -47.5t-36.5 -29.5t-56.5 15l-135 150q-24 33 -8 63.5z" />
<glyph unicode="a" d="M130 675q67 105 185 150l-2 -2q68 31 157 31h22q184 -2 262 -129v63q0 27 15 43.5t44 16.5q27 0 44 -16.5t17 -43.5v-737q0 -27 -16 -43t-45 -16q-59 0 -59 59v80q-35 -70 -113 -110.5t-156 -40.5q-141 0 -239 71q-94 66 -142 167q-45 97 -45 212q0 133 71 245zM180 440 v-11q0 -168 121 -271q72 -55 172 -64q117 0 194.5 68.5t86.5 191.5v131q0 117 -74 183.5t-191 70.5h-7q-88 0 -164 -45q-79 -47 -113 -131q-21 -53 -25 -123z" />
<glyph unicode="b" horiz-adv-x="1024" d="M111 47v1004q0 27 19.5 42t42 15t40.5 -15.5t18 -41.5v-330q37 63 110 98t161 35q184 0 302 -116.5t122 -297.5v-16q0 -137 -66 -245q-70 -114 -201 -169v2q-74 -33 -157 -32q-82 0 -158 36.5t-115 110.5v-80q0 -57 -57 -57q-61 0 -61 57zM231 354q0 -119 81 -189.5 t198 -70.5q102 8 172 64q123 103 123 277q0 64 -25 128q-35 82 -113.5 129t-170.5 47q-115 -4 -190 -75.5t-75 -178.5v-131z" />
<glyph unicode="c" horiz-adv-x="890" d="M57 453q10 184 131 298.5t310 114.5q180 0 305 -141q23 -27 9.5 -55.5t-43.5 -32.5t-54 18q-88 100 -230 101q-135 0 -220 -96.5t-85 -239.5q0 -133 72 -219q90 -109 240 -109q162 0 241 109q20 27 53 20.5t44 -33.5q4 -8 4 -17q0 -20 -17 -44q-121 -147 -328 -147 q-94 0 -183 38.5t-150 108.5q-99 124 -100 293q0 17 1 33z" />
<glyph unicode="d" horiz-adv-x="1021" d="M63 440q4 180 122 297t302 117q86 0 160 -35t109 -98v330q0 27 19.5 42t42 15t41 -15.5t18.5 -41.5v-1004q0 -57 -60 -57q-57 0 -57 57v80q-39 -74 -115 -110.5t-158 -36.5q-84 0 -159 32l2 -2q-133 55 -202 169q-65 107 -65 245v16zM184 440v-11q0 -170 123 -271 q70 -55 170 -64q119 0 199 71t80 189v131q0 106 -75 178t-187 76q-92 0 -171 -47t-114 -129q-23 -60 -25 -123z" />
<glyph unicode="e" horiz-adv-x="1026" d="M66 402q-1 13 -1 27q0 133 74 246q82 124 230 167q58 17 120 17t127 -17h2q141 -39 223.5 -149.5t84.5 -268.5v2q1 -5 0 -10q0 -24 -16 -43q-19 -23 -66 -23h-656q16 -106 99.5 -178t206.5 -72q129 0 219 70q20 18 45.5 18t41 -13t16.5 -37.5t-23 -47.5 q-106 -100 -288 -100h-7q-100 0 -190.5 38t-145.5 109q-88 117 -96 265zM184 451h625q-8 106 -69.5 182t-157.5 100h2q-43 12 -86 12q-46 0 -92 -14q-98 -25 -156 -100.5t-66 -179.5z" />
<glyph unicode="f" horiz-adv-x="579" d="M20 748q-6 12 -5 24q0 13 7 27q13 27 44 26h88v35q0 78 42 135.5t102 82.5q47 20 101 20q15 0 31 -1q72 -7 129 -50q21 -18 21 -41q0 -6 -1 -13q-7 -31 -34 -39t-53 9q-39 29 -88 29h-2q-47 0 -87 -36q-41 -37 -41 -96v-35h158q29 0 41 -26.5t0 -51t-41 -24.5h-158v-676 q0 -35 -30 -49q-15 -7 -30.5 -7t-30.5 7q-30 14 -29 49v676h-91q-31 0 -43 25z" />
<glyph unicode="g" horiz-adv-x="1024" d="M66 397q0 8 -1 17q0 137 64 244q68 114 201 169q74 29 156.5 29t158.5 -32.5t113 -96.5v64q0 59 59 59q29 0 45.5 -16.5t16.5 -42.5v-752q0 -174 -115 -269.5t-295 -95.5q-195 0 -315 115q-25 23 -25 48q0 8 2 16q10 33 42 39q7 2 14 2q24 0 46 -19q61 -45 113.5 -63.5 t122.5 -18.5q123 0 208 62.5t85 183.5v90q-80 -141 -266 -145q-10 0 -20 -1q-85 0 -159 31q-115 47 -182 150.5t-69 232.5zM186 397q2 -70 25 -123q33 -84 113 -131q77 -45 162 -45h8q113 4 188.5 78t75.5 178v131q0 166 -142 226q-59 29 -128 29q-14 0 -29 -2 q-86 -7 -152 -58h2q-123 -100 -123 -267v-16z" />
<glyph unicode="h" horiz-adv-x="1069" d="M111 49v993q0 35 30 49q15 7 31 6l31 -6q31 -13 30 -49v-348q43 84 128 125t186 41q156 0 266.5 -100.5t110.5 -272.5v-438q0 -59 -60 -59q-29 0 -45 16.5t-16 42.5v438q0 111 -76 184.5t-182 73.5q-125 0 -218.5 -78.5t-93.5 -203.5v-414q0 -59 -59 -59q-29 0 -46 16 t-17 43z" />
<glyph unicode="i" horiz-adv-x="333" d="M96 969v73q0 27 19.5 43.5t43 16.5t43 -16.5t19.5 -43.5v-73q0 -35 -31 -50q-16 -8 -32 -8q-15 0 -30 7q-32 14 -32 51zM98 43v748q0 33 31 47q16 7 32 7q15 0 28 -6q30 -13 30 -48v-748q0 -35 -30 -48q-14 -6 -28 -7q-16 0 -32 8q-31 14 -31 47z" />
<glyph unicode="j" horiz-adv-x="346" d="M-18 -263q-7 15 -7 28q0 30 37 49q59 33 80 76.5t21 109.5v49v742q0 27 16 42t45 15q23 0 41 -16.5t18 -40.5v-732q0 -66 -2 -101.5t-17 -86.5t-53 -90t-102 -74q-16 -6 -29 -6q-32 0 -48 36zM111 969v73q0 27 19.5 43.5t43 16.5t43 -16.5t19.5 -43.5v-73q0 -35 -32 -50 q-16 -8 -33 -8q-15 0 -30 7q-30 14 -30 51z" />
<glyph unicode="k" horiz-adv-x="817" d="M111 49v993q0 31 30 44q15 7 30.5 7t30.5 -7q30 -13 29 -44v-600l115 113l299 279q23 21 48 21q9 0 18 -3q35 -10 41 -40q1 -6 1 -11q0 -24 -22 -49l-309 -287l342 -377q17 -19 17 -39q0 -11 -6 -23q-15 -32 -47 -35q-3 0 -6 -1q-28 0 -54 26l-338 381l-99 -88v-260 q0 -35 -29.5 -50t-60 -1t-30.5 51z" />
<glyph unicode="l" horiz-adv-x="333" d="M98 49v995q0 25 17.5 41.5t44.5 16.5q25 0 42 -16.5t17 -41.5v-995q0 -23 -17.5 -39t-41.5 -16q-27 0 -44.5 16t-17.5 39z" />
<glyph unicode="m" horiz-adv-x="1771" d="M127 47v744q0 23 17.5 40t41.5 17q27 0 42.5 -16.5t15.5 -40.5v-115q96 172 311 172q115 0 208 -56.5t130 -162.5q43 106 139 162.5t213 56.5q152 0 267.5 -96.5t115.5 -257.5v-447q0 -25 -17.5 -41t-43.5 -16q-61 0 -62 57v440q0 106 -74.5 176t-181.5 70 q-133 0 -222 -89t-89 -230v-367q0 -25 -17.5 -41t-45 -16t-44 16.5t-16.5 40.5v412q0 162 -115 235q-61 37 -143 37q-125 0 -217 -87t-92 -222v-375q0 -35 -31 -49t-60.5 0t-29.5 49z" />
<glyph unicode="n" horiz-adv-x="1069" d="M111 47v744q0 37 29.5 52t60 -0.5t30.5 -51.5v-105q43 86 128 130t188 44q156 0 266.5 -100.5t110.5 -272.5v-440q0 -57 -60 -57q-29 0 -45 16.5t-16 40.5v440q0 111 -76 184.5t-182 73.5q-123 0 -217.5 -90t-94.5 -223v-385q0 -57 -59 -57q-29 0 -46 16t-17 41z" />
<glyph unicode="o" horiz-adv-x="1009" d="M59 453q14 141 93 246.5t215 142.5q51 16 127 16q68 0 122 -16q133 -37 215 -142.5t93 -246.5q1 -16 1 -32q0 -166 -100 -286q-125 -150 -332.5 -149.5t-330.5 149.5q-103 118 -103 292q-1 13 0 26zM182 418q0 -125 74 -211q90 -109 238 -109q141 0 237 109q74 88 74 207 q0 117 -59.5 205t-163.5 114q-45 12 -90.5 12t-88.5 -12q-102 -27 -161.5 -113.5t-59.5 -201.5z" />
<glyph unicode="p" horiz-adv-x="1028" d="M111 -242v1030q0 57 61 58q57 0 57 -58v-77q39 72 115 108.5t158 36.5q84 0 157 -31q131 -53 201 -168q66 -108 66 -245v-17q-4 -180 -122 -296.5t-302 -116.5q-88 0 -161 33.5t-110 99.5v-357q0 -27 -18 -43t-40.5 -16t-42 16t-19.5 43zM231 352q0 -109 75 -180.5 t190 -75.5q92 0 170.5 47t113.5 131q25 63 25 129q0 172 -123 275q-70 55 -172 63q-117 0 -198 -70.5t-81 -187.5v-131z" />
<glyph unicode="q" horiz-adv-x="1030" d="M66 395q-2 147 66.5 262t201.5 168h-2q74 31 160 31q80 0 155.5 -37t116.5 -108v77q0 57 55 58q61 0 62 -58v-1030q0 -27 -19.5 -43t-41 -16t-41 16.5t-19.5 42.5v357q-37 -66 -109.5 -99.5t-158.5 -33.5q-184 0 -302 116.5t-124 296.5zM188 397q0 -66 25 -123 q35 -84 114 -131t169 -47q115 4 189.5 76t74.5 180v131q0 117 -81 187.5t-198 70.5q-102 -8 -172 -63q-121 -101 -121 -270v-11z" />
<glyph unicode="r" horiz-adv-x="557" d="M106 55v736q0 27 18.5 41t41 15t40 -14.5t17.5 -41.5v-84q70 141 248 141q63 0 64 -57q0 -57 -64 -58q-121 0 -182.5 -85t-61.5 -218v-375q0 -25 -17 -42t-42 -17q-29 0 -45.5 16t-16.5 43z" />
<glyph unicode="s" horiz-adv-x="886" d="M47 188q-3 9 -3 18q0 21 19 37q27 22 60 13.5t39 -47.5q12 -53 91 -83t177 -30q47 0 102.5 12.5t104.5 49.5t49 90q0 37 -16.5 59.5t-63.5 34.5t-69.5 16t-96.5 9q-10 2 -16 2l-90 9q-29 3 -83 13t-81 25.5t-58.5 39t-45 61.5t-13.5 87q0 82 58.5 142.5t137.5 86 t165 25.5q297 0 364 -172q12 -35 -12.5 -57.5t-57 -18.5t-42.5 33q-41 102 -252 102q-86 0 -163 -36.5t-77 -106.5q0 -35 17.5 -57.5t49 -32.5t69.5 -14l87 -9q20 0 33 -2q61 -4 93 -8t84 -14t81 -25.5t60.5 -41t45 -63.5t13.5 -87q0 -76 -39 -129t-100.5 -80t-121 -39 t-117.5 -12t-114.5 8t-115 28.5t-100.5 62.5t-52 101z" />
<glyph unicode="t" horiz-adv-x="636" d="M16 766q-7 13 -7 26t7 26q14 26 50 26h110v192q0 39 30 54q14 7 28 6l31 -7q30 -15 30 -53v-192h180q35 0 50.5 -25.5t0 -52.5t-50.5 -27h-180v-446q0 -88 25.5 -141.5t103.5 -53.5q47 0 78 19q35 14 60 0t25 -45q0 -35 -36 -56q-49 -29 -127 -28q-248 0 -248 305v446 h-110q-36 0 -50 27z" />
<glyph unicode="u" horiz-adv-x="1064" d="M109 354v441q0 57 59 57q29 0 45 -15.5t16 -41.5v-441q0 -111 76 -184.5t180 -73.5q125 0 219.5 90t94.5 224v385q0 57 59 57q29 0 46.5 -15.5t17.5 -41.5v-744q0 -37 -31 -51t-60.5 0t-29.5 53v105q-43 -86 -128 -130t-188 -44q-156 0 -266 100t-110 270z" />
<glyph unicode="v" horiz-adv-x="919" d="M8 776q-5 13 -4 24q0 33 41 48q17 6 31 6q32 0 47 -33l326 -647l327 651q12 29 45 32h8q28 0 47 -19q14 -14 13 -33q0 -11 -4 -23l-383 -759q-16 -35 -51 -38q-3 0 -5 -1q-32 0 -55 36z" />
<glyph unicode="w" horiz-adv-x="1507" d="M37 791q-4 11 -4 20q0 19 16 34q22 19 49 19q4 0 8 -1q33 -3 46 -27l282 -648l262 543q16 41 56.5 41t58.5 -41l266 -545l277 643q12 31 45 34q4 0 8 1q28 0 48 -19q15 -13 15 -31q0 -11 -6 -23l-329 -773q-12 -32 -52 -31h-3q-42 1 -56 31l-266 557l-273 -557 q-18 -31 -57 -33q-3 0 -6 -1q-34 0 -51 34z" />
<glyph unicode="x" horiz-adv-x="862" d="M35 88l289 338l-285 338q-16 22 -16 40q0 24 27 42q21 13 39 13q24 0 44 -23l273 -334l292 334q17 24 43 23q6 0 12 -1q34 -6 47 -31.5t-3 -54.5l-312 -346l314 -344q18 -19 17 -39q0 -10 -4 -19q-13 -30 -44 -35q-5 -1 -11 -1q-25 0 -48 20l-303 346l-283 -344 q-16 -18 -37 -22q-7 -1 -13 -2q-13 0 -23 6q-15 8 -26 22q-9 11 -9 27q0 24 20 47z" />
<glyph unicode="y" horiz-adv-x="925" d="M14 772q-6 13 -5 25q0 19 14 34q22 26 53 26h3q34 -1 48 -36l322 -641l315 643q16 31 49 33t55 -21q14 -14 14 -33q0 -11 -5 -24l-533 -1059q-16 -37 -51 -42q-6 -1 -11 0q-27 0 -44 22q-12 16 -12 34q0 13 5 27l148 297z" />
<glyph unicode="z" horiz-adv-x="876" d="M35 37q-3 10 -4 19q0 25 24 46l561 627h-249h-248q-37 0 -52.5 28.5t0 57.5t52.5 29h614q45 0 62 -37q6 -13 6 -26q0 -23 -19 -44v2l-569 -628l532 2q37 0 55 -28q9 -15 9 -30q0 -13 -7 -26q-15 -29 -57 -29h-647q-51 0 -63 37z" />
<glyph unicode="{" horiz-adv-x="432" d="M31 485q0 20 12 37t33 19q33 4 47 16q27 27 27 135v248q0 121 39.5 180.5t164.5 59.5q35 0 49.5 -28t0 -55.5t-49.5 -27.5q-53 0 -69.5 -27.5t-16.5 -103.5v-242v-24v-28q0 -5 -1 -26.5t-3 -28.5t-6 -24.5t-10 -25.5l-15 -20q-8 -11 -19 -19t-26 -15l25.5 -15t20 -19.5 t14.5 -20.5t10 -26l6 -25q2 -8 3 -29.5t1 -25.5v-28v-26v-231q0 -76 16.5 -103.5t69.5 -27.5q35 0 49.5 -26.5t0 -55.5t-49.5 -29q-125 0 -164.5 60.5t-39.5 179.5v237q0 109 -27 136q-14 14 -47 16q-20 2 -32.5 18t-12.5 41z" />
<glyph unicode="|" horiz-adv-x="253" d="M59 -100v1192q0 25 17.5 41t42.5 16q29 0 45 -15.5t16 -41.5v-1192q0 -57 -61 -58q-25 0 -42.5 15.5t-17.5 42.5z" />
<glyph unicode="}" horiz-adv-x="446" d="M22.5 -118.5q14.5 26.5 51.5 26.5q51 0 67.5 27.5t16.5 103.5v231v26v28q0 4 1 25.5t3 29.5l6 25q4 17 10 25.5l14.5 21t19.5 19.5t28 15q-16 6 -27.5 14.5t-19.5 19.5l-15 20q-6 8 -10 25.5t-6 24.5t-3 28.5t-1 26.5v28v24v242q0 76 -16.5 103.5t-67.5 27.5 q-37 0 -51.5 27.5t1 55.5t50.5 28q123 0 162.5 -59.5t39.5 -180.5v-248q0 -109 27 -135q14 -12 47 -16q20 -2 33.5 -18.5t13.5 -37.5q0 -25 -13 -41t-34 -18q-33 -2 -47 -16q-27 -27 -27 -136v-237q0 -119 -39.5 -179.5t-162.5 -60.5q-35 0 -50.5 29t-1 55.5z" />
<glyph unicode="~" horiz-adv-x="854" d="M23 406q29 176 186 176q76 0 203 -56.5t155 -64.5q100 -20 121 76q6 35 37 45t56.5 -8.5t19.5 -57.5q-10 -84 -60.5 -128t-126.5 -44q-72 0 -206 64.5t-197 64.5q-29 0 -52.5 -20.5t-29.5 -63.5q-6 -35 -34.5 -44t-53 9.5t-18.5 51.5z" />
<glyph unicode="&#xa1;" horiz-adv-x="247" d="M49 733v58q0 35 33 48t64.5 -1.5t31.5 -46.5v-58q0 -35 -31.5 -50t-64.5 -1t-33 51zM55 -178v731q0 37 31 50t61.5 -1t30.5 -49v-731q0 -39 -30.5 -54.5t-61.5 1t-31 53.5z" />
<glyph unicode="&#xa2;" horiz-adv-x="845" d="M25 451q2 143 83.5 246.5t217.5 140.5q8 4 55 12v86q0 29 28.5 42t57.5 1t29 -43v-86q158 -25 254 -139q23 -27 9 -60t-43.5 -38t-58.5 28v-2q-63 72 -161 90v-623q121 16 188 111q18 29 53 21.5t46.5 -38t-11.5 -65.5v2q-98 -125 -276 -145v-92q0 -39 -29 -52.5t-57.5 2 t-28.5 50.5v96q-172 31 -265 153t-91 302zM145 414q0 -109 64.5 -194t171.5 -111v620l-23 -2h2q-215 -55 -215 -313z" />
<glyph unicode="&#xa5;" horiz-adv-x="1017" d="M4 1047.5q16 29.5 45 30.5t53 -27l390 -523l387 525q23 23 51 19.5t46.5 -29t2.5 -52.5l-365 -489h136q39 0 53 -25.5t-1.5 -51.5t-51.5 -26h-201v-86h201q33 0 48 -25.5t1.5 -50t-49.5 -24.5h-201v-160q0 -39 -28.5 -53t-58.5 1t-28 52v160h-205q-35 2 -49 27.5t1.5 49 t49.5 23.5h203v86h-205q-35 4 -49 30t1.5 49.5t49.5 23.5h140l-363 485q-20 31 -4 60.5z" />
<glyph unicode="&#xa8;" horiz-adv-x="626" d="M66 1104q0 31 21.5 50.5t51.5 19.5q27 0 50.5 -19.5t23.5 -50.5q0 -35 -22.5 -53.5t-51.5 -18.5q-31 0 -52 20.5t-21 51.5zM389 1104q0 31 22.5 50.5t53.5 19.5q29 0 51.5 -19.5t22.5 -50.5q0 -35 -22.5 -53.5t-52.5 -18.5t-52.5 20.5t-22.5 51.5z" />
<glyph unicode="&#xa9;" horiz-adv-x="827" d="M16 520q0 162 114 274.5t274.5 112.5t274.5 -112.5t114 -274.5q0 -158 -114 -271.5t-274.5 -113.5t-274.5 113.5t-114 271.5zM135 520q0 -113 79 -192.5t190.5 -79.5t191.5 80t80 192q0 115 -79 195t-191.5 80t-191.5 -80t-79 -195zM197 520q0 43 8 70q23 61 69 102 q18 16 58 35q39 10 78 10q94 0 153 -65v2q14 -20 19 -35q2 -49 -60 -66q-23 -4 -47 21v2q-27 27 -65 27q-31 0 -60 -21l2 2q-33 -29 -33 -84q0 -43 25 -69q25 -29 68 -29q51 0 73 35q12 12 47 22q23 4 42.5 -8t23.5 -39q2 -29 -12 -43q-59 -84 -172 -84q-94 0 -162 70 q-55 65 -55 145z" />
<glyph unicode="&#xab;" horiz-adv-x="700" d="M25 381q-55 51 4 102v-2l274 267h-2q18 16 43 16q23 0 41 -17.5t18 -39.5q0 -20 -20 -41l-242 -234l242 -235q20 -20 20 -41q0 -25 -16 -41.5t-43 -16.5q-31 0 -47 21l4 -2l-276 266v-2zM297 381q-55 51 4 102v-2l274 267h-2q20 16 43 16q25 0 42.5 -17.5t17.5 -39.5 q0 -20 -21 -41l-241 -234l241 -235q20 -18 21 -41q0 -23 -17.5 -40.5t-42.5 -17.5q-27 0 -47 21l4 -2l-276 266v-2z" />
<glyph unicode="&#xad;" horiz-adv-x="604" d="M60.5 464q-15.5 28 1 55.5t55.5 27.5h334q41 0 57 -27.5t0 -55.5t-57 -28h-334q-41 0 -56.5 28z" />
<glyph unicode="&#xae;" horiz-adv-x="792" d="M6 512q0 156 111.5 265.5t267.5 109.5q160 0 269.5 -109.5t109.5 -265.5t-109.5 -266.5t-269.5 -110.5q-156 0 -267.5 110.5t-111.5 266.5zM119 513q0 -112 77.5 -190.5t188.5 -78.5t188.5 77.5t77.5 190.5t-77.5 191.5t-188.5 78.5q-109 0 -187.5 -78.5t-78.5 -190.5z M258 362v295q-2 27 14.5 42.5t44.5 15.5q23 0 40.5 -15.5t15.5 -50.5q37 70 114 70q25 0 43.5 -16.5t18.5 -43.5q0 -23 -16.5 -39t-45.5 -16q-49 0 -78.5 -33.5t-29.5 -85.5v-123q0 -27 -17.5 -43t-44.5 -16q-59 0 -59 59z" />
<glyph unicode="&#xb0;" horiz-adv-x="333" d="M10 956q0 57 42 98.5t104 41.5q59 0 102 -41t43 -99q0 -61 -43 -102t-102 -41q-61 0 -103.5 41t-42.5 102zM100 956q0 -23 17.5 -41t39 -18t39 16.5t17.5 42.5q0 23 -17.5 38.5t-37.5 15.5q-23 0 -40.5 -15.5t-17.5 -38.5z" />
<glyph unicode="&#xb1;" horiz-adv-x="784" d="M46 38q-3 15 0 30.5t18.5 28t35.5 12.5h555q35 0 49.5 -26t0 -53.5t-49.5 -29.5h-555q-20 0 -35.5 11.5t-18.5 26.5zM52.5 496.5q-13.5 27.5 1 54.5t46.5 27h219v221q0 37 30 51t59.5 -1t29.5 -50v-221h217q31 0 45.5 -27t1 -54.5t-46.5 -27.5h-217v-227 q0 -35 -29.5 -49.5t-59.5 0t-30 49.5v227h-219q-34 0 -47.5 27.5z" />
<glyph unicode="&#xb4;" horiz-adv-x="382" d="M86 952l121 148q33 47 78 24q41 -20 34 -55q-4 -16 -16 -29l-133 -145q-41 -39 -75 -10.5t-9 67.5z" />
<glyph unicode="&#xb6;" horiz-adv-x="796" d="M18 805q0 102 76 177t178 75h422q27 0 44.5 -16.5t17.5 -43.5q0 -57 -62 -57h-45v-1053q0 -23 -16.5 -40t-44 -17t-45 17.5t-17.5 39.5v1053h-207v-1053q0 -23 -16 -40t-45 -17q-27 0 -44 17.5t-17 39.5v676q-78 25 -128.5 91.5t-50.5 150.5z" />
<glyph unicode="&#xb7;" horiz-adv-x="200" d="M12 495.5q0 32.5 23.5 55t58.5 22.5t56.5 -22.5t21.5 -55t-21.5 -53t-56.5 -20.5t-58.5 20.5t-23.5 53z" />
<glyph unicode="&#xb8;" horiz-adv-x="503" d="M96.5 -120.5q14.5 26.5 40 24.5t45.5 -29q16 -29 55 -40t72 1t33 45q0 37 -45 49.5t-74 -2.5l-41 47l39 123l119 -2l-31 -86q70 4 107 -33.5t37 -91.5q0 -82 -73 -123t-160 -23.5t-124 83.5q-14 31 0.5 57.5z" />
<glyph unicode="&#xbb;" horiz-adv-x="698" d="M23 154q0 20 18 41l244 233l-250 240q-12 23 -12 37q0 25 17 41t42 16q23 0 43 -17h-2l274 -268v2q55 -49 2 -100l-274 -264h2q-20 -20 -45 -20.5t-42 17t-17 42.5zM274 154q0 18 19 41l244 233l-250 240q-12 25 -13 37q0 25 17.5 41t42.5 16q27 0 43 -17h-2l276 -268v2 q53 -47 2 -100l-276 -264h2q-16 -20 -45 -21q-25 0 -42.5 17.5t-17.5 42.5z" />
<glyph unicode="&#xbf;" horiz-adv-x="999" d="M29 96q2 63 23.5 110.5t66.5 81.5t77.5 51t96.5 44q53 23 83 38t56.5 44t26.5 67v39q0 33 29.5 47.5t59.5 1t30 -48.5v-41q0 -51 -17.5 -89t-58.5 -67.5t-70 -44t-86 -38.5q-45 -20 -71.5 -33.5t-59.5 -37t-48 -54.5t-17 -74q-2 -115 106.5 -175t235.5 -60 q111 0 201.5 36.5t119.5 124.5q8 29 40 32t54.5 -17.5t14.5 -52.5q-23 -66 -71 -114t-111.5 -72.5t-124 -34t-126.5 -9.5q-80 0 -159.5 20.5t-149 61.5t-111.5 109.5t-40 154.5zM449 737v43q0 37 34.5 49.5t68.5 -2t34 -47.5v-43q0 -35 -34 -50t-68.5 -1t-34.5 51z" />
<glyph unicode="&#xc0;" horiz-adv-x="1155" d="M4 66l500 987q16 31 55 30q37 0 53 -30l500 -983q27 -45 -16 -70t-78 0q-10 8 -19 23l-129 256h-622l-135 -263q-14 -29 -47 -29.5t-54.5 23t-7.5 56.5zM297 383h522l-260 522zM379 1276q-35 39 2 72q37 31 76 8q10 -6 18 -19l125 -141q16 -23 5 -45.5t-36.5 -26.5 t-56.5 15z" />
<glyph unicode="&#xc1;" horiz-adv-x="1155" d="M4 66q-14 -33 7.5 -56.5t54 -22.5t47.5 29l135 263h622l129 -256q20 -43 72 -31q43 8 49 43q2 16 -8 35l-500 983q-16 31 -53 30q-39 0 -55 -30zM297 383l262 522l260 -522h-522zM518 1158.5q-8 21.5 4 41.5l125 135q33 43 82 23q39 -18 33 -53q-4 -12 -17 -25l-137 -131 q-27 -23 -54.5 -17.5t-35.5 27z" />
<glyph unicode="&#xc2;" horiz-adv-x="1155" d="M4 66q-14 -33 7.5 -56.5t54 -22.5t47.5 29l135 263h622l129 -256q20 -43 72 -31q43 8 49 43q2 16 -8 35l-500 983q-16 31 -53 30q-39 0 -55 -30zM297 383l262 522l260 -522h-522zM358 1123.5q-4 21.5 17 47.5l131 109q49 39 94 0l133 -109q39 -33 4 -63q-29 -29 -69 -6 q-2 2 -9 4l-104 86l-113 -88q-25 -16 -52.5 -9t-31.5 28.5z" />
<glyph unicode="&#xc3;" horiz-adv-x="1155" d="M4 66q-14 -33 7.5 -56.5t54 -22.5t47.5 29l135 263h622l129 -256q20 -43 72 -31q43 8 49 43q2 16 -8 35l-500 983q-16 31 -53 30q-39 0 -55 -30zM297 383l262 522l260 -522h-522zM333 1170.5q-11 21.5 5 56.5q45 72 133 71q33 0 72 -18t61.5 -32.5t51 -17.5t40.5 27 q23 45 68 31q35 -14 35 -49q0 -12 -8 -22q-33 -68 -99.5 -81.5t-134.5 29.5q-102 68 -137 2q-16 -25 -46 -21.5t-41 25z" />
<glyph unicode="&#xc4;" horiz-adv-x="1155" d="M4 66q-14 -33 7.5 -56.5t54 -22.5t47.5 29l135 263h622l129 -256q20 -43 72 -31q43 8 49 43q2 16 -8 35l-500 983q-16 31 -53 30q-39 0 -55 -30zM297 383l262 522l260 -522h-522zM322 1200q0 31 22.5 50.5t52.5 19.5q27 0 49.5 -19.5t22.5 -50.5q0 -35 -22.5 -53.5 t-49.5 -18.5q-31 0 -53 20.5t-22 51.5zM647 1200q0 31 22.5 50.5t51.5 19.5t52.5 -19.5t23.5 -50.5q0 -35 -22.5 -53.5t-52.5 -18.5t-52.5 20.5t-22.5 51.5z" />
<glyph unicode="&#xc5;" horiz-adv-x="1155" d="M4 66q-14 -33 7.5 -56.5t54 -22.5t47.5 29l135 263h622l129 -256q20 -43 72 -31q43 8 49 43q2 16 -8 35l-500 983q-16 31 -53 30q-39 0 -55 -30zM297 383l262 522l260 -522h-522zM410 1235q0 53 43 91t106 38q61 0 104.5 -38t43.5 -91t-43 -91t-105 -38q-63 0 -106 38 t-43 91zM506 1236q0 -19 16.5 -34.5t36.5 -15.5q18 0 33.5 15.5t15.5 34.5t-14 32.5t-34.5 13.5t-37 -13.5t-16.5 -32.5z" />
<glyph unicode="&#xc6;" horiz-adv-x="1654" d="M-11.5 6.5q-11.5 26.5 7.5 59.5l768 962q16 27 51 27h37h651q37 0 49.5 -28t-4 -54.5t-47.5 -26.5h-606v-368h575q35 0 50.5 -28t2 -55.5t-52.5 -27.5h-575v-354h606q33 0 47.5 -28t0 -56.5t-47.5 -28.5h-649q-35 0 -56.5 21.5t-21.5 52.5v211h-457l-225 -283 q-25 -31 -58.5 -26.5t-45 31zM397 389h377v483z" />
<glyph unicode="&#xc7;" horiz-adv-x="1105" d="M66 543q0 203 126.5 350t321.5 176q303 43 494 -158q25 -27 11.5 -56.5t-42.5 -34.5t-55 16q-139 150 -390 120q-158 -25 -253 -132t-95 -283q0 -186 124 -315.5t298 -129.5q96 0 193 47q84 45 137 113q18 27 51 21.5t47.5 -31t-2.5 -58.5q-66 -92 -180 -147 q-86 -41 -176 -53l-21 -60q66 6 103 -28.5t37 -85.5q0 -80 -71 -120t-155 -23.5t-120 77.5q-16 29 -1 55.5t39.5 26.5t44.5 -27q25 -41 89.5 -40t64.5 49q0 35 -44 46t-71 -3l-39 43l29 86q-207 16 -351 173t-144 386z" />
<glyph unicode="&#xc8;" horiz-adv-x="1058" d="M127 74v909q0 31 21.5 51.5t54.5 20.5h700q33 0 46.5 -27t-1 -53.5t-47.5 -26.5h-655v-373h622q33 0 46.5 -26.5t1 -53t-47.5 -26.5h-622v-360h655q33 0 48.5 -27t2 -54.5t-50.5 -27.5h-698q-33 0 -54.5 21.5t-21.5 52.5zM418 1294q-35 37 2 68t76 10q14 -6 22 -18 l125 -137q25 -31 -6 -58q-35 -29 -80 0q-2 2 -2 4z" />
<glyph unicode="&#xc9;" horiz-adv-x="1058" d="M127 74q0 -31 21.5 -52.5t54.5 -21.5h698q37 0 50.5 27.5t-2 54.5t-48.5 27h-655v360h622q35 0 47.5 26.5t-1 53t-46.5 26.5h-622v373h655q33 0 47.5 26.5t1 53.5t-46.5 27h-700q-33 0 -54.5 -20.5t-21.5 -51.5v-909zM493.5 1164.5q-8.5 21.5 6.5 43.5l127 133 q35 45 84 23q43 -18 32 -53q-4 -12 -14 -23l-141 -131q-27 -25 -56.5 -19.5t-38 27z" />
<glyph unicode="&#xca;" horiz-adv-x="1058" d="M127 74q0 -31 21.5 -52.5t54.5 -21.5h698q37 0 50.5 27.5t-2 54.5t-48.5 27h-655v360h622q35 0 47.5 26.5t-1 53t-46.5 26.5h-622v373h655q33 0 47.5 26.5t1 53.5t-46.5 27h-700q-33 0 -54.5 -20.5t-21.5 -51.5v-909zM375 1165.5q-4 22.5 16 46.5l131 111q49 35 94 0 l134 -111q37 -29 8 -59q-29 -31 -70 -12q-4 4 -12 8l-105 84l-112 -84q-25 -18 -52.5 -12t-31.5 28.5z" />
<glyph unicode="&#xcb;" horiz-adv-x="1058" d="M127 74q0 -31 21.5 -52.5t54.5 -21.5h698q37 0 50.5 27.5t-2 54.5t-48.5 27h-655v360h622q35 0 47.5 26.5t-1 53t-46.5 26.5h-622v373h655q33 0 47.5 26.5t1 53.5t-46.5 27h-700q-33 0 -54.5 -20.5t-21.5 -51.5v-909zM334 1208q0 31 22.5 51.5t51.5 20.5q27 0 50 -20.5 t23 -51.5q0 -35 -22.5 -53t-50.5 -18q-29 0 -51.5 20t-22.5 51zM659 1208q0 31 21.5 51.5t52.5 20.5q29 0 51.5 -20.5t22.5 -51.5q0 -35 -21.5 -53t-52.5 -18t-52.5 20t-21.5 51z" />
<glyph unicode="&#xcc;" horiz-adv-x="364" d="M-14 1292q-37 39 2 74q37 31 78 8q12 -8 20 -18l127 -146q18 -20 6 -44.5t-38.5 -28.5t-57.5 16zM115 41v993q0 29 19.5 45.5t43 16.5t43 -17.5t19.5 -44.5v-993q0 -37 -32 -51.5t-62.5 0t-30.5 51.5z" />
<glyph unicode="&#xcd;" horiz-adv-x="364" d="M115 41v993q0 29 19.5 45.5t43 16.5t43 -17.5t19.5 -44.5v-993q0 -37 -32 -51.5t-62.5 0t-30.5 51.5zM122 1166.5q-7 21.5 5 41.5l123 138q31 43 78 20q39 -16 32 -51q-4 -12 -16 -25l-133 -133q-27 -25 -54.5 -18.5t-34.5 28z" />
<glyph unicode="&#xce;" horiz-adv-x="364" d="M-2 1144q-33 30 4 64l127 111q49 39 94 0l129 -111q25 -23 15.5 -46t-35 -28.5t-51.5 11.5l-105 84l-108 -86q-37 -29 -70 1zM115 41v993q0 29 19.5 45.5t43 16.5t43 -17.5t19.5 -44.5v-993q0 -37 -32 -51.5t-62.5 0t-30.5 51.5z" />
<glyph unicode="&#xcf;" horiz-adv-x="364" d="M-61 1202q0 31 22.5 50.5t50.5 19.5q27 0 50.5 -19.5t23.5 -50.5q0 -35 -22.5 -53.5t-51.5 -18.5t-51 20.5t-22 51.5zM115 41v993q0 29 19.5 45.5t43 16.5t43 -17.5t19.5 -44.5v-993q0 -37 -32 -51.5t-62.5 0t-30.5 51.5zM264 1202q0 31 22.5 50.5t51.5 19.5t52.5 -19.5 t23.5 -50.5q0 -37 -22.5 -54.5t-52.5 -17.5t-52.5 20.5t-22.5 51.5z" />
<glyph unicode="&#xd0;" horiz-adv-x="1073" d="M-46 498.5q-15 25.5 0 50t52 24.5h57v412q0 29 23 49.5t53 20.5h363q158 0 272.5 -78t167.5 -195.5t53 -254t-53 -254t-168 -195.5t-272 -78h-363q-31 0 -53.5 21.5t-22.5 50.5v401h-57q-37 0 -52 25.5zM184 111h318q174 0 273 123.5t99 292.5t-99 294t-273 125h-318 v-373h129q33 0 48.5 -24.5t2 -50t-50.5 -25.5h-129v-362z" />
<glyph unicode="&#xd1;" horiz-adv-x="1144" d="M119 47q0 -41 30.5 -56.5t62.5 1t32 55.5v586l-13 227l621 -829q16 -29 52 -36t65.5 10.5t29.5 57.5v953q0 35 -30.5 48t-62.5 -1t-32 -47v-588l17 -250l-639 854q-20 29 -52 37t-56.5 -12.5t-24.5 -59.5v-950zM340 1178.5q-12 21.5 4 56.5q45 72 133 72q33 0 73 -18.5 t61.5 -33t50 -17.5t40.5 28q23 45 68 30q37 -14 35 -49q0 -12 -6 -22q-35 -68 -100.5 -81.5t-135.5 30.5q-102 68 -137 2q-16 -25 -45 -22t-41 24.5z" />
<glyph unicode="&#xd2;" horiz-adv-x="1234" d="M61 545q0 199 122 346t319 178q80 12 174 0q195 -29 324.5 -176.5t129.5 -347.5q0 -250 -156.5 -406.5t-375.5 -156.5q-229 0 -383 153.5t-154 409.5zM186 541q0 -201 117 -323t295 -122q174 0 292 121t118 324q0 162 -96.5 277.5t-249.5 139.5q-74 10 -144 0 q-152 -23 -242 -135t-90 -282zM430 1288q-37 37 2 70q39 29 80 8q14 -8 25 -18l133 -140q25 -29 -4 -55q-37 -31 -84 -4q-2 2 -7 4z" />
<glyph unicode="&#xd3;" horiz-adv-x="1234" d="M61 545q0 -256 154 -409.5t383 -153.5q219 0 375.5 156.5t156.5 406.5q0 201 -130 348t-324 176q-94 12 -174 0q-197 -31 -319 -178t-122 -346zM186 541q0 170 90.5 282.5t241.5 134.5q70 10 144 0q154 -25 250 -140.5t96 -276.5q0 -203 -118 -324t-292 -121 q-178 0 -295 122t-117 323zM565 1208l129 133q35 43 86 23q39 -16 33 -51q-2 -14 -14 -25l-144 -131q-43 -37 -82 -8q-28 26 -8 59z" />
<glyph unicode="&#xd4;" horiz-adv-x="1234" d="M61 545q0 -256 154 -409.5t383 -153.5q219 0 375.5 156.5t156.5 406.5q0 201 -130 348t-324 176q-94 12 -174 0q-197 -31 -319 -178t-122 -346zM186 541q0 170 90.5 282.5t241.5 134.5q70 10 144 0q154 -25 250 -140.5t96 -276.5q0 -203 -118 -324t-292 -121 q-178 0 -295 122t-117 323zM411 1170.5q-5 21.5 17 48.5l129 108q49 35 94 0l133 -108q37 -33 7 -62q-33 -29 -70 -8q-6 2 -10 6l-105 82l-110 -84q-25 -18 -52.5 -11t-32.5 28.5z" />
<glyph unicode="&#xd5;" horiz-adv-x="1234" d="M61 545q0 -256 154 -409.5t383 -153.5q219 0 375.5 156.5t156.5 406.5q0 201 -130 348t-324 176q-94 12 -174 0q-197 -31 -319 -178t-122 -346zM186 541q0 170 90.5 282.5t241.5 134.5q70 10 144 0q154 -25 250 -140.5t96 -276.5q0 -203 -118 -324t-292 -121 q-178 0 -295 122t-117 323zM378 1189.5q-11 22.5 5 57.5q45 72 133 72q33 0 72 -18.5t61.5 -33t51 -17.5t40.5 28q23 45 66 29q37 -12 35 -47q0 -12 -6 -25q-33 -68 -99.5 -80t-134.5 31q-102 68 -137 2q-16 -25 -46 -23t-41 24.5z" />
<glyph unicode="&#xd6;" horiz-adv-x="1234" d="M61 545q0 -256 154 -409.5t383 -153.5q219 0 375.5 156.5t156.5 406.5q0 201 -130 348t-324 176q-94 12 -174 0q-197 -31 -319 -178t-122 -346zM186 541q0 170 90.5 282.5t241.5 134.5q70 10 144 0q154 -25 250 -140.5t96 -276.5q0 -203 -118 -324t-292 -121 q-178 0 -295 122t-117 323zM362 1225q0 29 23 49t53 20q27 0 49.5 -20.5t22.5 -48.5q0 -35 -21.5 -54.5t-50.5 -19.5q-31 0 -53.5 20.5t-22.5 53.5zM688 1225q0 29 22.5 49t53.5 20q27 0 50.5 -20.5t23.5 -48.5q0 -37 -22.5 -55.5t-52.5 -18.5t-52.5 20.5t-22.5 53.5z" />
<glyph unicode="&#xd8;" horiz-adv-x="1234" d="M61 545q0 199 122 346t319 178q80 12 174 0q88 -14 158 -49l69 113q18 27 47 27.5t47.5 -25t1.5 -58.5l-69 -116q92 -74 146 -182.5t54 -233.5q0 -250 -156.5 -406.5t-375.5 -156.5q-117 0 -221 43l-72 -119q-20 -35 -52 -33t-44 29.5t2 58.5l70 117q-102 74 -161 193.5 t-59 273.5zM186 541q0 -233 156 -359l436 740q-61 29 -116 36q-74 10 -144 0q-152 -23 -242 -135t-90 -282zM436 127q74 -31 162 -31q174 0 292 121t118 324q0 197 -140 319z" />
<glyph unicode="&#xd9;" horiz-adv-x="1257" d="M123 467v547q0 35 30.5 49t62.5 -1t32 -50v-545q0 -86 30.5 -156.5t83 -113.5t118 -65.5t133 -22.5t133 22.5t116.5 65.5t83 113.5t32 156.5v545q0 39 30.5 54t62.5 1t32 -53v-547q0 -113 -42 -207t-112.5 -152.5t-156.5 -89t-178.5 -30.5t-179.5 30.5t-156.5 89 t-111.5 152.5t-42 207zM455 1286q-35 39 2 72q35 31 73 10q14 -6 25 -18l127 -144q16 -23 5 -45t-37.5 -26.5t-57.5 14.5z" />
<glyph unicode="&#xda;" horiz-adv-x="1257" d="M123 467q0 -113 42 -207t111.5 -152.5t156.5 -89t179.5 -30.5t178.5 30.5t156.5 89t112.5 152.5t42 207v547q0 39 -32 53t-62.5 -1t-30.5 -54v-545q0 -86 -32 -156.5t-83 -113.5t-116.5 -65.5t-133 -22.5t-133 22.5t-118 65.5t-83 113.5t-30.5 156.5v545q0 35 -32 50 t-62.5 1t-30.5 -49v-547zM545 1161.5q-8 22.5 6 42.5l125 131q35 43 86 23q39 -18 31 -53q-2 -10 -15 -23l-141 -131q-27 -20 -55.5 -16t-36.5 26.5z" />
<glyph unicode="&#xdb;" horiz-adv-x="1257" d="M123 467q0 -113 42 -207t111.5 -152.5t156.5 -89t179.5 -30.5t178.5 30.5t156.5 89t112.5 152.5t42 207v547q0 39 -32 53t-62.5 -1t-30.5 -54v-545q0 -86 -32 -156.5t-83 -113.5t-116.5 -65.5t-133 -22.5t-133 22.5t-118 65.5t-83 113.5t-30.5 156.5v545q0 35 -32 50 t-62.5 1t-30.5 -49v-547zM419 1174.5q-5 21.5 15 48.5l131 106q51 37 97 0l133 -106q39 -33 4 -64q-29 -29 -70 -6q-2 2 -8 4l-107 84l-112 -84q-23 -18 -50.5 -11t-32.5 28.5z" />
<glyph unicode="&#xdc;" horiz-adv-x="1257" d="M123 467q0 -113 42 -207t111.5 -152.5t156.5 -89t179.5 -30.5t178.5 30.5t156.5 89t112.5 152.5t42 207v547q0 39 -32 53t-62.5 -1t-30.5 -54v-545q0 -86 -32 -156.5t-83 -113.5t-116.5 -65.5t-133 -22.5t-133 22.5t-118 65.5t-83 113.5t-30.5 156.5v545q0 35 -32 50 t-62.5 1t-30.5 -49v-547zM387 1223q0 31 22.5 50t51.5 19q27 0 50.5 -19.5t23.5 -49.5q0 -35 -23 -54.5t-51 -19.5q-29 0 -51.5 21.5t-22.5 52.5zM711 1223q0 31 22.5 50t52.5 19q29 0 51.5 -19.5t22.5 -49.5q0 -37 -21.5 -55.5t-52 -18.5t-53 21.5t-22.5 52.5z" />
<glyph unicode="&#xdd;" horiz-adv-x="1021" d="M10.5 1042.5q-14.5 -26.5 3.5 -59.5l420 -557v-371q0 -31 17.5 -46t44.5 -15q25 0 43 16.5t18 44.5v371l416 559q23 33 4 60.5t-49.5 27.5t-53.5 -29l-380 -514l-375 512q-20 33 -57 30t-51.5 -29.5zM418 1148.5q-8 22.5 6 45.5l125 137q33 45 82 25q39 -18 33 -56 q-4 -12 -15 -24l-139 -137q-27 -23 -55.5 -18t-36.5 27.5z" />
<glyph unicode="&#xde;" horiz-adv-x="1050" d="M127 51v955q0 33 29.5 48t59.5 0.5t30 -50.5v-101h295q205 0 318.5 -115.5t113.5 -271.5t-110.5 -259t-319.5 -103h-297v-101q0 -41 -30 -55t-59.5 1t-29.5 52zM246 266h297q154 0 232.5 74t76.5 176q-2 109 -87 192t-222 83h-297v-525z" />
<glyph unicode="&#xdf;" horiz-adv-x="892" d="M88 -258v1042q0 82 28.5 140.5t79 88t103.5 43t113 13.5q61 0 115.5 -14.5t105.5 -44t81.5 -88t30.5 -138.5q0 -63 -43 -128.5t-104 -90.5q106 -27 163.5 -93t57.5 -163q0 -88 -32.5 -150.5t-93 -95t-128 -48t-151.5 -15.5h-95q-35 0 -48 26.5t1.5 54.5t46.5 28h95 q285 0 284 200q0 92 -70.5 139.5t-183.5 47.5h-127q-31 0 -44 27.5t0.5 55t43.5 27.5h45q113 0 188 47t75 131q0 92 -65.5 134.5t-149.5 42.5q-82 0 -141.5 -41t-59.5 -136v-1042q0 -33 -29.5 -47t-60.5 -1t-31 48z" />
<glyph unicode="&#xe0;" d="M59 440q4 129 71 234.5t185 150.5l-2 -2q76 35 179 31q184 -2 262 -129v63q0 27 15 43.5t44 16.5q27 0 44 -16.5t17 -43.5v-737q0 -27 -16 -43t-45 -16q-59 0 -59 59v80q-35 -70 -113 -110.5t-156 -40.5q-141 0 -239 71q-94 66 -141.5 167t-45.5 222zM180 440 q-4 -176 121 -282q72 -55 172 -64q117 0 194.5 68.5t86.5 191.5v131q0 117 -74 183.5t-191 70.5q-92 2 -170.5 -45t-113.5 -131q-21 -53 -25 -123zM336 1085q-35 37 2 70q37 29 76 8q12 -6 20 -18l127 -139q16 -20 5 -43t-37.5 -27t-57.5 14z" />
<glyph unicode="&#xe1;" d="M59 440q4 129 71 234.5t185 150.5l-2 -2q76 35 179 31q184 -2 262 -129v63q0 27 15 43.5t44 16.5q27 0 44 -16.5t17 -43.5v-737q0 -27 -16 -43t-45 -16q-59 0 -59 59v80q-35 -70 -113 -110.5t-156 -40.5q-141 0 -239 71q-94 66 -141.5 167t-45.5 222zM180 440 q-4 -176 121 -282q72 -55 172 -64q117 0 194.5 68.5t86.5 191.5v131q0 117 -74 183.5t-191 70.5q-92 2 -170.5 -45t-113.5 -131q-21 -53 -25 -123zM437 967.5q-7 19.5 3 40.5l125 131q33 43 82 20q39 -18 31 -49q-2 -12 -14 -23l-138 -129q-25 -20 -53.5 -15t-35.5 24.5z " />
<glyph unicode="&#xe2;" d="M59 440q4 129 71 234.5t185 150.5l-2 -2q76 35 179 31q184 -2 262 -129v63q0 27 15 43.5t44 16.5q27 0 44 -16.5t17 -43.5v-737q0 -27 -16 -43t-45 -16q-59 0 -59 59v80q-35 -70 -113 -110.5t-156 -40.5q-141 0 -239 71q-94 66 -141.5 167t-45.5 222zM180 440 q-4 -176 121 -282q72 -55 172 -64q117 0 194.5 68.5t86.5 191.5v131q0 117 -74 183.5t-191 70.5q-92 2 -170.5 -45t-113.5 -131q-21 -53 -25 -123zM295 986.5q-6 21.5 14 47.5l131 111q47 39 92 0l132 -111q25 -23 15.5 -46t-35.5 -28.5t-52 11.5l-107 84l-106 -86 q-25 -18 -51.5 -11t-32.5 28.5z" />
<glyph unicode="&#xe3;" d="M59 440q4 129 71 234.5t185 150.5l-2 -2q76 35 179 31q184 -2 262 -129v63q0 27 15 43.5t44 16.5q27 0 44 -16.5t17 -43.5v-737q0 -27 -16 -43t-45 -16q-59 0 -59 59v80q-35 -70 -113 -110.5t-156 -40.5q-141 0 -239 71q-94 66 -141.5 167t-45.5 222zM180 440 q-4 -176 121 -282q72 -55 172 -64q117 0 194.5 68.5t86.5 191.5v131q0 117 -74 183.5t-191 70.5q-92 2 -170.5 -45t-113.5 -131q-21 -53 -25 -123zM277.5 1001.5q-11.5 22.5 5.5 57.5q45 72 131 71q35 0 73.5 -18t61 -33.5t50.5 -17.5t42 26q20 45 66 31q37 -14 34 -49 q0 -10 -6 -22q-33 -68 -99.5 -80.5t-133.5 30.5q-104 66 -140 2q-16 -27 -44.5 -23.5t-40 26z" />
<glyph unicode="&#xe4;" d="M59 440q4 129 71 234.5t185 150.5l-2 -2q76 35 179 31q184 -2 262 -129v63q0 27 15 43.5t44 16.5q27 0 44 -16.5t17 -43.5v-737q0 -27 -16 -43t-45 -16q-59 0 -59 59v80q-35 -70 -113 -110.5t-156 -40.5q-141 0 -239 71q-94 66 -141.5 167t-45.5 222zM180 440 q-4 -176 121 -282q72 -55 172 -64q117 0 194.5 68.5t86.5 191.5v131q0 117 -74 183.5t-191 70.5q-92 2 -170.5 -45t-113.5 -131q-21 -53 -25 -123zM264 1034q0 29 22.5 49.5t51.5 20.5q27 0 50.5 -20.5t23.5 -49.5q0 -35 -22.5 -54t-51.5 -19t-51.5 20t-22.5 53zM590 1034 q0 29 21.5 49.5t52.5 20.5q29 0 51 -20.5t22 -49.5q0 -37 -21.5 -55t-52 -18t-52 20t-21.5 53z" />
<glyph unicode="&#xe5;" d="M59 440q4 129 71 234.5t185 150.5l-2 -2q76 35 179 31q184 -2 262 -129v63q0 27 15 43.5t44 16.5q27 0 44 -16.5t17 -43.5v-737q0 -27 -16 -43t-45 -16q-59 0 -59 59v80q-35 -70 -113 -110.5t-156 -40.5q-141 0 -239 71q-94 66 -141.5 167t-45.5 222zM180 440 q-4 -176 121 -282q72 -55 172 -64q117 0 194.5 68.5t86.5 191.5v131q0 117 -74 183.5t-191 70.5q-92 2 -170.5 -45t-113.5 -131q-21 -53 -25 -123zM348 1034q0 57 42 98.5t104 41.5q61 0 103 -41t42 -99q0 -61 -42 -102t-103 -41t-103.5 41t-42.5 102zM442 1034 q0 -23 16.5 -39t35.5 -16q18 0 33.5 16.5t15.5 38t-14.5 35.5t-34 14t-36 -15.5t-16.5 -33.5z" />
<glyph unicode="&#xe6;" horiz-adv-x="1728" d="M74 440q4 129 71.5 234.5t182.5 150.5v-2q78 35 178 31q76 -2 150.5 -32.5t113.5 -100.5v78q0 37 29.5 49t58.5 -2.5t29 -46.5v-86q98 143 313 143q70 0 123 -14q143 -39 226 -149.5t85 -268.5v2q2 -82 -84 -82h-659q23 -111 107.5 -174.5t201.5 -67.5q121 -2 221 74h-2 q31 20 64 11t39 -35.5t-23 -61.5q-109 -102 -295 -100q-213 0 -317 143v-94q0 -35 -29 -50.5t-58.5 0t-29.5 50.5v88q-88 -147 -272 -147q-84 0 -160 32l2 -2q-133 55 -200.5 169t-65.5 261zM197 440q-6 -178 122 -282h-2q72 -55 170 -64q68 0 140 33h-2q139 68 147 227v131 q0 111 -73.5 178.5t-196.5 75.5q-90 0 -169 -47t-112 -129q-22 -53 -24 -123zM887 455h624q-8 106 -66.5 180t-154.5 98h2q-39 10 -88 10q-135 0 -218 -77.5t-99 -210.5z" />
<glyph unicode="&#xe7;" horiz-adv-x="880" d="M57 451q10 182 128 291.5t307 109.5q176 0 299 -141q23 -25 8 -53.5t-43.5 -34t-53.5 17.5q-88 102 -225 102q-133 0 -216 -91t-83 -234q0 -123 72 -207q84 -109 234.5 -109t230.5 111q20 27 54 19.5t46 -35t-8 -60.5q-102 -125 -272 -143l-25 -62q68 4 104.5 -29.5 t36.5 -80.5q0 -84 -71.5 -122t-155.5 -19.5t-121 77.5q-14 29 1 54.5t41 27.5t44 -20q27 -43 89.5 -46t64.5 44q0 33 -44 44t-73 -3l-39 43l31 94q-162 20 -264 141q-107 134 -97 314z" />
<glyph unicode="&#xe8;" horiz-adv-x="1026" d="M65.5 402.5q-8.5 148.5 73.5 272.5t230 167q117 35 247 0h2q141 -39 223.5 -149.5t84.5 -268.5v2q4 -31 -15.5 -53.5t-66.5 -22.5h-656q16 -106 99.5 -178t206.5 -72q129 0 219 70q20 18 45.5 18t41 -13t16.5 -37.5t-23 -47.5q-109 -102 -295 -100q-100 0 -190.5 38 t-145.5 109q-88 117 -96.5 265.5zM184 451h625q-8 106 -69.5 182t-157.5 100h2q-90 25 -178 -2q-98 -25 -156 -100.5t-66 -179.5zM346 1083q-35 39 2 74q35 31 76 10q12 -6 22 -18l125 -148q18 -20 6 -43.5t-38.5 -28.5t-55.5 15z" />
<glyph unicode="&#xe9;" horiz-adv-x="1026" d="M65.5 402.5q-8.5 148.5 73.5 272.5t230 167q117 35 247 0h2q141 -39 223.5 -149.5t84.5 -268.5v2q4 -31 -15.5 -53.5t-66.5 -22.5h-656q16 -106 99.5 -178t206.5 -72q129 0 219 70q20 18 45.5 18t41 -13t16.5 -37.5t-23 -47.5q-109 -102 -295 -100q-100 0 -190.5 38 t-145.5 109q-88 117 -96.5 265.5zM184 451h625q-8 106 -69.5 182t-157.5 100h2q-90 25 -178 -2q-98 -25 -156 -100.5t-66 -179.5zM453.5 956.5q-7.5 22.5 5.5 44.5l123 138q33 45 82 22q39 -18 30 -55q-4 -10 -16 -23l-135 -135q-27 -25 -54.5 -19.5t-35 28z" />
<glyph unicode="&#xea;" horiz-adv-x="1026" d="M65.5 402.5q-8.5 148.5 73.5 272.5t230 167q117 35 247 0h2q141 -39 223.5 -149.5t84.5 -268.5v2q4 -31 -15.5 -53.5t-66.5 -22.5h-656q16 -106 99.5 -178t206.5 -72q129 0 219 70q20 18 45.5 18t41 -13t16.5 -37.5t-23 -47.5q-109 -102 -295 -100q-100 0 -190.5 38 t-145.5 109q-88 117 -96.5 265.5zM184 451h625q-8 106 -69.5 182t-157.5 100h2q-90 25 -178 -2q-98 -25 -156 -100.5t-66 -179.5zM321.5 927.5q-32.5 30.5 4.5 71.5l127 113q49 39 92 0l131 -113q25 -27 15.5 -51t-35 -29.5t-52.5 11.5l-104 88l-109 -88q-37 -33 -69.5 -2.5 z" />
<glyph unicode="&#xeb;" horiz-adv-x="1026" d="M65.5 402.5q-8.5 148.5 73.5 272.5t230 167q117 35 247 0h2q141 -39 223.5 -149.5t84.5 -268.5v2q4 -31 -15.5 -53.5t-66.5 -22.5h-656q16 -106 99.5 -178t206.5 -72q129 0 219 70q20 18 45.5 18t41 -13t16.5 -37.5t-23 -47.5q-109 -102 -295 -100q-100 0 -190.5 38 t-145.5 109q-88 117 -96.5 265.5zM184 451h625q-8 106 -69.5 182t-157.5 100h2q-90 25 -178 -2q-98 -25 -156 -100.5t-66 -179.5zM274 1008q0 31 22.5 50t51.5 19q27 0 50.5 -19.5t23.5 -49.5q0 -35 -22.5 -53.5t-51.5 -18.5t-51.5 20.5t-22.5 51.5zM598 1008q0 31 22.5 50 t53.5 19q29 0 51.5 -19.5t22.5 -49.5q0 -35 -23 -53.5t-52.5 -18.5t-52 20.5t-22.5 51.5z" />
<glyph unicode="&#xec;" horiz-adv-x="333" d="M-8 1081q-35 41 2 74q35 31 74 10q14 -6 24 -18l123 -148q16 -25 5 -47t-36.5 -27t-56.5 15zM98 43v748q0 33 31 47t60.5 0.5t29.5 -47.5v-748q0 -35 -29.5 -48t-60.5 1t-31 47z" />
<glyph unicode="&#xed;" horiz-adv-x="333" d="M98 43q0 -33 31 -47t60.5 -1t29.5 48v748q0 35 -29.5 48t-60.5 -1.5t-31 -46.5v-748zM104.5 961.5q-8.5 21.5 4.5 44.5l127 133q35 45 83 22q41 -18 33 -53q-4 -12 -16 -23l-139 -131q-27 -25 -55.5 -19.5t-37 27z" />
<glyph unicode="&#xee;" horiz-adv-x="333" d="M-25.5 919.5q-31.5 30.5 2.5 69.5l132 113q47 37 92 0l131 -113q25 -25 15.5 -49.5t-35 -29.5t-52.5 12l-106 86l-107 -86q-41 -33 -72.5 -2.5zM98 43q0 -33 31 -47t60.5 -1t29.5 48v748q0 35 -29.5 48t-60.5 -1.5t-31 -46.5v-748z" />
<glyph unicode="&#xef;" horiz-adv-x="333" d="M-63 1014q0 29 22.5 49t52.5 20q27 0 49.5 -20.5t22.5 -48.5q0 -35 -22.5 -54.5t-49.5 -19.5q-31 0 -53 21.5t-22 52.5zM98 43q0 -33 31 -47t60.5 -1t29.5 48v748q0 35 -29.5 48t-60.5 -1.5t-31 -46.5v-748zM231 1014q0 29 22.5 49t53.5 20q29 0 51.5 -20.5t22.5 -48.5 q0 -37 -22.5 -55.5t-52.5 -18.5t-52.5 21.5t-22.5 52.5z" />
<glyph unicode="&#xf0;" horiz-adv-x="960" d="M41 436q0 88 35 170q49 115 151.5 175.5t223.5 60.5q84 0 162.5 -35t117.5 -111v80q0 96 -82 154l-35 -37q-23 -27 -50 -21.5t-35.5 31t10.5 53.5l30 31q-63 31 -129 31q-143 0 -235 -92q-43 -39 -78 -4.5t0 77.5q104 104 264 125q150 12 258 -51l43 49q20 23 50 17 t39.5 -30t-9.5 -50l-43 -45q123 -94 123 -234v-436q-2 -88 -45 -166t-125 -127h2q-86 -55 -209 -55q-139 0 -235 67v-2q-92 59 -145.5 160.5t-53.5 214.5zM166 436q0 -51 10 -88q33 -125 129 -188q78 -53 170 -54q80 0 148 41q51 29 78.5 83.5t31.5 115.5v121q0 104 -94 183 t-197 79q-84 0 -152.5 -42t-101.5 -124q-22 -55 -22 -127z" />
<glyph unicode="&#xf1;" horiz-adv-x="1069" d="M111 47v744q0 37 29.5 52t60 -0.5t30.5 -51.5v-105q43 86 128 130t188 44q156 0 266.5 -100.5t110.5 -272.5v-440q0 -57 -60 -57q-29 0 -45 16.5t-16 40.5v440q0 111 -76 184.5t-182 73.5q-123 0 -217.5 -90t-94.5 -223v-385q0 -57 -59 -57q-29 0 -46 16t-17 41z M308 993.5q-11 22.5 5 57.5q45 72 133 71q33 0 72 -18.5t61.5 -33.5t51 -17t41.5 26q23 45 65 31q37 -14 35 -49q0 -10 -6 -23q-33 -68 -99.5 -80t-134.5 31q-102 66 -137 2q-16 -27 -46 -23.5t-41 26z" />
<glyph unicode="&#xf2;" d="M59 453q14 141 93 246.5t215 142.5q51 16 127 16q68 0 122 -16q133 -37 215 -142.5t93 -246.5q10 -186 -99 -318q-125 -150 -332.5 -149.5t-330.5 149.5q-111 128 -103 318zM182 418q0 -125 74 -211q90 -109 238 -109q141 0 237 109q74 88 74 207q0 117 -59.5 205 t-163.5 114q-45 12 -90.5 12t-88.5 -12q-102 -27 -161.5 -113.5t-59.5 -201.5zM328 1096q-35 37 2 69q35 31 76 11q12 -6 22 -19l127 -139q16 -23 5 -46.5t-37.5 -27.5t-55.5 17z" />
<glyph unicode="&#xf3;" d="M59 453q14 141 93 246.5t215 142.5q51 16 127 16q68 0 122 -16q133 -37 215 -142.5t93 -246.5q10 -186 -99 -318q-125 -150 -332.5 -149.5t-330.5 149.5q-111 128 -103 318zM182 418q0 -125 74 -211q90 -109 238 -109q141 0 237 109q74 88 74 207q0 117 -59.5 205 t-163.5 114q-45 12 -90.5 12t-88.5 -12q-102 -27 -161.5 -113.5t-59.5 -201.5zM442.5 963.5q-8.5 21.5 3.5 44.5l125 133q33 43 80 22q41 -16 35 -51q-4 -14 -16 -25l-138 -131q-27 -25 -54 -19.5t-35.5 27z" />
<glyph unicode="&#xf4;" d="M59 453q14 141 93 246.5t215 142.5q51 16 127 16q68 0 122 -16q133 -37 215 -142.5t93 -246.5q10 -186 -99 -318q-125 -150 -332.5 -149.5t-330.5 149.5q-111 128 -103 318zM182 418q0 -125 74 -211q90 -109 238 -109q141 0 237 109q74 88 74 207q0 117 -59.5 205 t-163.5 114q-45 12 -90.5 12t-88.5 -12q-102 -27 -161.5 -113.5t-59.5 -201.5zM320.5 960.5q-33.5 30.5 5.5 67.5l129 113q47 39 94 0l131 -113q25 -23 15.5 -47.5t-36 -29.5t-53.5 12l-104 88l-111 -90q-37 -31 -70.5 -0.5z" />
<glyph unicode="&#xf5;" d="M59 453q14 141 93 246.5t215 142.5q51 16 127 16q68 0 122 -16q133 -37 215 -142.5t93 -246.5q10 -186 -99 -318q-125 -150 -332.5 -149.5t-330.5 149.5q-111 128 -103 318zM182 418q0 -125 74 -211q90 -109 238 -109q141 0 237 109q74 88 74 207q0 117 -59.5 205 t-163.5 114q-45 12 -90.5 12t-88.5 -12q-102 -27 -161.5 -113.5t-59.5 -201.5zM269.5 1004.5q-11.5 21.5 4.5 56.5q45 72 132 72q35 0 73.5 -18.5t61 -33t50 -17.5t42.5 28q20 45 65 30q37 -14 35 -49q0 -12 -6 -22q-33 -68 -99.5 -81.5t-133.5 29.5q-104 68 -140 2 q-16 -25 -44.5 -21.5t-40 25z" />
<glyph unicode="&#xf6;" d="M59 453q14 141 93 246.5t215 142.5q51 16 127 16q68 0 122 -16q133 -37 215 -142.5t93 -246.5q10 -186 -99 -318q-125 -150 -332.5 -149.5t-330.5 149.5q-111 128 -103 318zM182 418q0 -125 74 -211q90 -109 238 -109q141 0 237 109q74 88 74 207q0 117 -59.5 205 t-163.5 114q-45 12 -90.5 12t-88.5 -12q-102 -27 -161.5 -113.5t-59.5 -201.5zM258 1018q0 29 21.5 49t52.5 20q27 0 50.5 -20t23.5 -49q0 -35 -23 -54.5t-51 -19.5q-31 0 -52.5 20.5t-21.5 53.5zM582 1018q0 29 22.5 49t52.5 20q29 0 51.5 -20t22.5 -49q0 -37 -22.5 -55.5 t-52 -18.5t-52 20.5t-22.5 53.5z" />
<glyph unicode="&#xf7;" horiz-adv-x="811" d="M42 463.5q-15 25.5 0 51.5t50 26h565q37 0 53.5 -26t1 -51.5t-54.5 -25.5h-565q-35 0 -50 25.5zM295 280.5q0 30.5 20.5 51t51.5 20.5q33 0 53 -20.5t20 -51t-20.5 -51t-52.5 -20.5q-31 0 -51.5 20.5t-20.5 51zM295 711.5q0 31.5 20.5 51t51.5 19.5q33 0 53 -19.5t20 -51 t-20.5 -51t-52.5 -19.5q-31 0 -51.5 19.5t-20.5 51z" />
<glyph unicode="&#xf8;" horiz-adv-x="1011" d="M59 453q14 137 94 244.5t214 144.5q51 14 127 14q68 0 122 -14q35 -12 43 -13l52 91q18 33 52 32.5t53.5 -26t2.5 -56.5l-63 -98q72 -59 117 -143t51 -176q10 -184 -99 -316q-123 -147 -331 -147q-88 0 -168 28l-58 -98q-29 -47 -75 -24.5t-25 73.5l59 105q-31 20 -65 63 q-111 130 -103 316zM182 418q0 -123 74 -207q14 -20 31 -33l315 547q-84 33 -201 4h2q-102 -27 -161.5 -114.5t-59.5 -196.5zM383 119q53 -16 111 -17q147 0 237 109q72 82 72 203q0 66 -30 135t-77 119z" />
<glyph unicode="&#xf9;" horiz-adv-x="1071" d="M109 354v441q0 57 59 57q29 0 45 -15.5t16 -41.5v-441q0 -111 76 -184.5t180 -73.5q125 0 219.5 90t94.5 224v385q0 57 59 57q29 0 46.5 -15.5t17.5 -41.5v-744q0 -37 -31 -51t-60.5 0t-29.5 53v105q-43 -86 -128 -130t-188 -44q-156 0 -266 100t-110 270zM365 1090 q-37 41 2 73q37 31 73 11q14 -8 23 -21l127 -143q16 -20 4 -44t-39 -28t-55 16z" />
<glyph unicode="&#xfa;" horiz-adv-x="1071" d="M109 354v441q0 57 59 57q29 0 45 -15.5t16 -41.5v-441q0 -111 76 -184.5t180 -73.5q125 0 219.5 90t94.5 224v385q0 57 59 57q29 0 46.5 -15.5t17.5 -41.5v-744q0 -37 -31 -51t-60.5 0t-29.5 53v105q-43 -86 -128 -130t-188 -44q-156 0 -266 100t-110 270zM444.5 961.5 q-8.5 21.5 6.5 42.5l127 131q35 43 84 22q41 -18 32 -53q-4 -10 -16 -23l-141 -129q-27 -23 -55.5 -17.5t-37 27z" />
<glyph unicode="&#xfb;" horiz-adv-x="1071" d="M109 354v441q0 57 59 57q29 0 45 -15.5t16 -41.5v-441q0 -111 76 -184.5t180 -73.5q125 0 219.5 90t94.5 224v385q0 57 59 57q29 0 46.5 -15.5t17.5 -41.5v-744q0 -37 -31 -51t-60.5 0t-29.5 53v105q-43 -86 -128 -130t-188 -44q-156 0 -266 100t-110 270zM325.5 951.5 q-6.5 21.5 16.5 47.5l129 109q49 39 92 0l131 -109q27 -25 17.5 -48t-35 -28t-51.5 11l-107 84l-108 -86q-25 -18 -51.5 -10t-33 29.5z" />
<glyph unicode="&#xfc;" horiz-adv-x="1071" d="M109 354v441q0 57 59 57q29 0 45 -15.5t16 -41.5v-441q0 -111 76 -184.5t180 -73.5q125 0 219.5 90t94.5 224v385q0 57 59 57q29 0 46.5 -15.5t17.5 -41.5v-744q0 -37 -31 -51t-60.5 0t-29.5 53v105q-43 -86 -128 -130t-188 -44q-156 0 -266 100t-110 270zM279 1012 q0 31 22.5 50t52.5 19q25 0 48.5 -19.5t23.5 -49.5q0 -35 -22.5 -54.5t-49.5 -19.5q-31 0 -53 21.5t-22 52.5zM604 1012q0 31 22.5 50t51.5 19t52.5 -19.5t23.5 -49.5q0 -37 -22.5 -55.5t-52.5 -18.5t-52.5 21.5t-22.5 52.5z" />
<glyph unicode="&#xfd;" horiz-adv-x="925" d="M14 772l365 -715l-148 -297q-14 -35 6.5 -61.5t55.5 -21t51 41.5l533 1059q14 33 -8.5 56.5t-55.5 21.5t-49 -33l-315 -643l-322 641q-14 35 -48 36t-56.5 -25.5t-8.5 -59.5zM406 983l120 147q31 47 78 27q39 -20 33 -57q-4 -14 -14 -29l-136 -145q-39 -39 -73.5 -9.5 t-7.5 66.5z" />
<glyph unicode="&#xfe;" horiz-adv-x="1009" d="M111 -246v1358q0 27 16 42t45 15q59 0 59 -57v-399q43 68 113 103.5t150 37.5q104 4 178 -31l-2 2q117 -45 184.5 -150.5t71.5 -234.5q4 -147 -65.5 -260.5t-201.5 -169.5v2q-74 -33 -157 -32q-82 0 -156 36.5t-115 110.5v-373q0 -55 -61 -55q-27 0 -43 14t-16 41z M231 354q8 -117 87 -188.5t192 -71.5q102 8 172 64h-2q127 104 125 282q-2 63 -25 123q-35 82 -113.5 129t-170.5 47q-111 -4 -182.5 -76.5t-82.5 -177.5v-131z" />
<glyph unicode="&#xff;" horiz-adv-x="925" d="M14 772l365 -715l-148 -297q-14 -35 6.5 -61.5t55.5 -21t51 41.5l533 1059q14 33 -8.5 56.5t-55.5 21.5t-49 -33l-315 -643l-322 641q-14 35 -48 36t-56.5 -25.5t-8.5 -59.5zM209 991q0 31 22.5 50.5t53.5 19.5q25 0 48 -19.5t23 -50.5q0 -35 -22.5 -53t-48.5 -18 q-31 0 -53.5 20t-22.5 51zM535 991q0 31 22.5 50.5t50.5 19.5q29 0 52.5 -19.5t23.5 -50.5q0 -35 -22.5 -53t-52 -18t-52 20t-22.5 51z" />
<glyph unicode="&#x152;" horiz-adv-x="1763" d="M76 545q6 201 122.5 348t309.5 176q53 8 90 8q199 0 295 -112q0 90 76 90h635q33 0 47 -28t0.5 -54.5t-49.5 -26.5h-594v-368h563q31 0 44 -28t0 -55.5t-44 -27.5h-563v-354h594q33 0 47 -28t0.5 -56.5t-47.5 -28.5h-629q-80 0 -80 94q-86 -113 -287 -112 q-225 0 -380.5 155.5t-149.5 407.5zM197 541q-4 -197 116.5 -323t292.5 -126q176 0 287 113v647q-127 113 -295 113q-35 0 -70 -7h-2q-147 -23 -235 -140t-94 -277z" />
<glyph unicode="&#x153;" horiz-adv-x="1753" d="M47 453q10 137 92 243.5t215 145.5q51 14 125 14q68 0 123 -14q154 -43 248 -205q80 160 246 205q53 14 127 14q184 0 304 -119t128 -313v2q4 -33 -14.5 -57.5t-65.5 -24.5h-655q16 -78 67 -133q88 -104 234 -109q121 -2 223 74h-2q27 25 58.5 16.5t38.5 -37t-17 -65.5 q-109 -102 -295 -100q-262 0 -377 211q-43 -94 -147.5 -152.5t-223.5 -58.5q-211 0 -334 147q-108 132 -98 316zM170 418q0 -123 72 -207q90 -109 237 -109q145 0 240 109q72 88 72 203q0 133 -88.5 230t-225.5 97q-43 0 -88 -12q-102 -27 -160.5 -113.5t-58.5 -197.5z M913 446h621q-10 109 -68.5 186t-152.5 101h2q-41 10 -88 10q-53 0 -94 -12q-96 -25 -154 -104t-66 -181z" />
<glyph unicode="&#x160;" horiz-adv-x="1071" d="M37 231q-10 35 17.5 56.5t63.5 13.5t42 -39q29 -92 132 -130t228 -38q59 0 116.5 10.5t114 33t92.5 65.5t36 102q0 27 -6.5 48.5t-24 37t-32.5 27.5t-48 21l-51 15q-18 5 -62.5 9t-64 7t-68.5 5l-115.5 12.5t-107.5 15.5t-101.5 30.5t-75.5 49t-57.5 74.5t-17.5 107 q0 150 141.5 232.5t313.5 82.5q377 0 463 -229q10 -33 -12.5 -53.5t-56.5 -17.5t-44 30q-59 147 -348 147q-45 0 -97.5 -9t-105.5 -30.5t-88 -61.5t-35 -93q0 -35 11.5 -61.5t40 -45t54 -30t75 -19.5t83 -11t95.5 -7q219 -20 297 -47q174 -57 174 -234q0 -90 -47.5 -157.5 t-122 -104.5t-155.5 -53.5t-163 -16.5q-96 0 -189 20.5t-181 82t-113 153.5zM333.5 1336.5q28.5 29.5 65.5 13.5q8 -4 15 -11l110 -86l113 88q14 12 31.5 14.5t30 -5t19.5 -18.5t5 -27.5t-18 -30.5l-134 -111q-49 -39 -96 0l-133 111q-37 33 -8.5 62.5z" />
<glyph unicode="&#x161;" horiz-adv-x="886" d="M47 188q-10 33 16.5 54.5t59.5 13.5t39 -47q12 -53 91 -83t177 -30q47 0 102.5 12.5t104.5 49.5t49 90q0 37 -16.5 59.5t-63.5 34.5t-69.5 16t-96.5 9q-10 2 -16 2l-90 9q-29 3 -83 13t-81 25.5t-58.5 39t-45 61.5t-13.5 87q0 82 58.5 142.5t137.5 86t165 25.5 q297 0 364 -172q12 -35 -12.5 -57.5t-57 -18.5t-42.5 33q-41 102 -252 102q-86 0 -163 -36.5t-77 -106.5q0 -35 17.5 -57.5t49 -32.5t69.5 -14l87 -9q20 0 33 -2q61 -4 93 -8t84 -14t81 -25.5t60.5 -41t45 -63.5t13.5 -87q0 -76 -39 -129t-100.5 -80t-121 -39t-117.5 -12 t-114.5 8t-115 28.5t-100.5 62.5t-52 101zM241.5 1097.5q8.5 24.5 36 30t54.5 -11.5l106 -86l111 88q39 31 71.5 0t-4.5 -67l-131 -111q-49 -37 -94 0l-133 111q-25 22 -16.5 46.5z" />
<glyph unicode="&#x178;" horiz-adv-x="1021" d="M10.5 1042.5q-14.5 -26.5 3.5 -59.5l420 -557v-371q0 -31 17.5 -46t44.5 -15q25 0 43 16.5t18 44.5v371l416 559q23 33 4 60.5t-49.5 27.5t-53.5 -29l-380 -514l-375 512q-20 33 -57 30t-51.5 -29.5zM274 1208q0 31 22.5 51.5t51.5 20.5q27 0 50.5 -20.5t23.5 -51.5 q0 -35 -22.5 -53t-51.5 -18t-51.5 20t-22.5 51zM582 1208q0 31 22.5 51.5t52.5 20.5q29 0 51.5 -20.5t22.5 -51.5q0 -35 -22.5 -53t-52 -18t-52 20t-22.5 51z" />
<glyph unicode="&#x17d;" horiz-adv-x="1017" d="M32.5 31.5q-14.5 31.5 14.5 64.5l744 852h-672q-37 0 -50.5 25.5t0 53.5t50.5 30h788q49 0 63.5 -32t-14.5 -69l-751 -841h708q37 0 53.5 -28t1 -56.5t-54.5 -30.5h-819q-47 0 -61.5 31.5zM346 1325q31 29 70 8q6 -2 10 -6l109 -84l110 86q25 18 52.5 10t32.5 -29.5 t-17 -47.5l-131 -109q-49 -35 -97 0l-133 109q-37 34 -6 63z" />
<glyph unicode="&#x17e;" horiz-adv-x="876" d="M35 37q12 -37 63 -37h647q41 0 56.5 28.5t-2 56.5t-54.5 28l-532 -2l569 628v-2q29 33 12.5 70t-61.5 37h-614q-37 0 -52.5 -29t0 -57.5t52.5 -28.5h248h249l-561 -627q-32 -28 -20 -65zM262 1095.5q31 28.5 72 8.5q4 -2 10 -6l107 -84l112 86q25 18 51.5 11t31.5 -28.5 t-15 -48.5l-131 -110q-49 -35 -97 0l-135 110q-37 33 -6 61.5z" />
<glyph unicode="&#x192;" horiz-adv-x="763" d="M-57 -211q-37 43 2 82t84 0h-2q23 -20 53 -21q127 0 158 193q14 113 46.5 339t47.5 345h-137q-37 0 -50.5 24.5t4 50t54.5 25.5h141q23 117 91.5 193t191.5 76q102 4 159 -49q31 -31 -6 -74t-73 -8q-25 18 -86 18q-119 0 -152 -156h154q39 0 53 -25.5t-4.5 -50 t-55.5 -24.5h-161q-14 -117 -47 -345l-48 -339q0 -2 -2 -6v-4q-16 -123 -86.5 -207t-197.5 -84q-90 0 -131 47z" />
<glyph unicode="&#x2c6;" horiz-adv-x="534" d="M65.5 920.5q-32.5 33.5 4.5 72.5l127 121q49 39 94 0l129 -121q25 -25 15.5 -51.5t-35 -32.5t-52.5 13l-104 94l-109 -94q-37 -35 -69.5 -1.5z" />
<glyph unicode="&#x2c7;" horiz-adv-x="540" d="M56.5 1075.5q9.5 26.5 35 32.5t51.5 -12l105 -95l106 95q39 35 72 1t-4 -73l-129 -121q-47 -39 -92 0l-129 121q-25 25 -15.5 51.5z" />
<glyph unicode="&#x2da;" horiz-adv-x="346" d="M-2 956q0 57 42 98.5t103 41.5t103.5 -41t42.5 -99q0 -61 -42 -102t-104 -41q-61 0 -103 41t-42 102zM92 956q0 -23 16.5 -39t34.5 -16t34 16.5t16 38.5q0 18 -15.5 34t-34.5 16q-18 0 -34.5 -16t-16.5 -34z" />
<glyph unicode="&#x2dc;" horiz-adv-x="583" d="M58.5 1005.5q-11.5 22.5 4.5 57.5q45 72 134 72q33 0 71.5 -18.5t61 -33t50.5 -17.5t42 28q20 45 65 28q37 -12 35 -47q0 -12 -6 -22q-33 -70 -99.5 -82.5t-133.5 30.5q-104 68 -140 3q-16 -25 -44.5 -23t-40 24.5z" />
<glyph unicode="&#x2000;" horiz-adv-x="690" />
<glyph unicode="&#x2001;" horiz-adv-x="1382" />
<glyph unicode="&#x2002;" horiz-adv-x="690" />
<glyph unicode="&#x2003;" horiz-adv-x="1382" />
<glyph unicode="&#x2004;" horiz-adv-x="460" />
<glyph unicode="&#x2005;" horiz-adv-x="344" />
<glyph unicode="&#x2006;" horiz-adv-x="229" />
<glyph unicode="&#x2007;" horiz-adv-x="229" />
<glyph unicode="&#x2008;" horiz-adv-x="172" />
<glyph unicode="&#x2009;" horiz-adv-x="276" />
<glyph unicode="&#x200a;" horiz-adv-x="75" />
<glyph unicode="&#x2010;" horiz-adv-x="604" d="M60.5 464q-15.5 28 1 55.5t55.5 27.5h334q41 0 57 -27.5t0 -55.5t-57 -28h-334q-41 0 -56.5 28z" />
<glyph unicode="&#x2011;" horiz-adv-x="604" d="M60.5 464q-15.5 28 1 55.5t55.5 27.5h334q41 0 57 -27.5t0 -55.5t-57 -28h-334q-41 0 -56.5 28z" />
<glyph unicode="&#x2012;" horiz-adv-x="604" d="M60.5 464q-15.5 28 1 55.5t55.5 27.5h334q41 0 57 -27.5t0 -55.5t-57 -28h-334q-41 0 -56.5 28z" />
<glyph unicode="&#x2013;" horiz-adv-x="671" d="M56.5 468q-15.5 28 1 56.5t51.5 28.5h428q31 0 46 -28.5t1.5 -56.5t-47.5 -28h-426q-39 0 -54.5 28z" />
<glyph unicode="&#x2014;" horiz-adv-x="888" d="M67.5 468q-12.5 28 1 56.5t46.5 28.5h639q33 0 47 -28.5t0.5 -56.5t-47.5 -28h-639q-35 0 -47.5 28z" />
<glyph unicode="&#x2018;" horiz-adv-x="239" d="M27 883l73 155q18 35 48 37t47.5 -23.5t3.5 -58.5l-68 -159q-14 -35 -49 -35t-53 26.5t-2 57.5z" />
<glyph unicode="&#x2019;" horiz-adv-x="221" d="M20 881l68 159q14 35 48 36t53.5 -25.5t3.5 -59.5l-74 -155q-18 -35 -49 -36t-48.5 23.5t-1.5 57.5z" />
<glyph unicode="&#x201a;" horiz-adv-x="243" d="M4 -84l68 158q14 35 48 36t53.5 -26t2.5 -57l-76 -156q-16 -35 -46.5 -37t-48 22.5t-1.5 59.5z" />
<glyph unicode="&#x201c;" horiz-adv-x="411" d="M27 883l73 155q29 55 76 34t23 -79l-68 -159q-14 -35 -49 -35t-53 26.5t-2 57.5zM221 883l78 151q14 33 44 36t47.5 -20.5t2.5 -56.5l-67 -159q-16 -35 -50 -35t-52.5 26.5t-2.5 57.5z" />
<glyph unicode="&#x201d;" horiz-adv-x="419" d="M18 874l68 160q14 35 49 35t53.5 -25.5t1.5 -58.5l-77 -151q-14 -33 -44 -36t-47.5 20t-3.5 56zM213 874l68 160q14 35 47.5 35t53 -25.5t3.5 -58.5l-76 -156q-27 -55 -74 -33.5t-22 78.5z" />
<glyph unicode="&#x201e;" horiz-adv-x="411" d="M4 -84l68 158q14 35 48 36t53.5 -26t2.5 -57l-76 -156q-16 -35 -46.5 -37t-48 22.5t-1.5 59.5zM213 -84l68 158q14 35 47.5 36t53 -26t3.5 -57l-76 -156q-16 -35 -47 -37t-48 22.5t-1 59.5z" />
<glyph unicode="&#x2022;" horiz-adv-x="387" d="M37 494q0 57 41 97t96 40q61 0 101 -40t40 -97t-41 -97.5t-100 -40.5q-55 0 -96 40.5t-41 97.5z" />
<glyph unicode="&#x2026;" horiz-adv-x="608" d="M6 70.5q0 31.5 20.5 50t54.5 18.5t53.5 -18.5t19.5 -50t-20.5 -51t-51.5 -19.5q-35 0 -55.5 19.5t-20.5 51zM207 70.5q0 31.5 20.5 50t53 18.5t53 -18.5t20.5 -50t-21.5 -51t-52 -19.5t-52 19.5t-21.5 51zM408 70.5q0 31.5 19 50t52 18.5t54.5 -18.5t21.5 -50t-21.5 -51 t-54.5 -19.5q-31 0 -51 19.5t-20 51z" />
<glyph unicode="&#x202f;" horiz-adv-x="276" />
<glyph unicode="&#x2030;" horiz-adv-x="1519" d="M20 844q0 94 61.5 163.5t160.5 69.5q94 0 158.5 -66.5t64.5 -166.5q0 -92 -62.5 -165t-160.5 -73q-94 0 -158 67t-64 171zM66.5 9.5q-9.5 27.5 7.5 56.5l725 1011q16 27 44.5 24t42 -25.5t-0.5 -55.5l-719 -1020q-25 -31 -57.5 -24.5t-42 34zM123 844q0 -53 32.5 -95 t86.5 -42q51 0 82.5 37.5t35.5 101.5q-2 51 -34.5 91t-83.5 40q-49 0 -84 -39t-35 -94zM489 223q0 92 62.5 163t159.5 71q94 0 158.5 -67.5t64.5 -166.5q0 -94 -62.5 -166.5t-160.5 -72.5q-94 0 -158 67.5t-64 171.5zM592 222q0 -52 33.5 -95t85.5 -43q53 0 83.5 39 t34.5 100q-2 51 -33.5 91t-84.5 40q-49 0 -84 -40t-35 -92zM997 223q0 92 62.5 163t159.5 71q94 0 158.5 -67.5t64.5 -166.5q0 -94 -62.5 -166.5t-160.5 -72.5q-94 0 -158 67.5t-64 171.5zM1100 222q0 -52 32.5 -95t86.5 -43q51 0 82.5 39t35.5 100q-2 51 -34.5 91t-83.5 40 q-49 0 -84 -40t-35 -92z" />
<glyph unicode="&#x2039;" horiz-adv-x="522" d="M66 379q-53 49 2 102l286 275q16 16 41 16q29 0 45.5 -15.5t16.5 -41.5q0 -20 -17 -39l-266 -246l260 -244q23 -20 23 -43.5t-16.5 -40t-45.5 -16.5q-25 0 -43 18z" />
<glyph unicode="&#x203a;" horiz-adv-x="499" d="M43 131q0 23 20 43l252 242l-256 248q-16 23 -16 38q0 27 16.5 43.5t44.5 16.5q25 0 41 -17h-2l289 -276q53 -55 2 -100l-287 -277h3q-16 -18 -46 -18q-27 0 -44 16t-17 41z" />
<glyph unicode="&#x205f;" horiz-adv-x="344" />
<glyph unicode="&#x20ac;" horiz-adv-x="1105" d="M-5 402.5q-11 25.5 1 52t39 26.5h53q-2 14 -2 43q0 37 2 54h-53q-29 0 -38 26.5t2 52t36 25.5h67q41 143 149.5 243.5t258.5 125.5q35 6 86 6q238 0 381 -156q20 -25 6 -52.5t-41 -34.5t-51 13q-66 74 -164 99.5t-199 11.5q-106 -16 -187 -86t-118 -170h226 q31 0 46 -25.5t1.5 -52t-47.5 -26.5h-254q-2 -18 -2 -58q0 -25 2 -39h254q20 0 33.5 -16t14.5 -35.5t-11.5 -36t-36.5 -16.5h-228q45 -125 154.5 -202t240.5 -77q94 0 180.5 42t141.5 114q20 23 49 19.5t47.5 -31t-0.5 -54.5q-63 -96 -183 -149t-241 -53 q-178 0 -321.5 107.5t-188.5 283.5h-65q-29 0 -40 25.5z" />
<glyph unicode="&#x2122;" horiz-adv-x="985" d="M-46 1029q11 28 42 28h334q35 0 51 -28t1 -54.5t-52 -26.5h-109v-315q0 -35 -28.5 -49.5t-57.5 0t-33 49.5v315h-106q-29 0 -41 26.5t-1 54.5zM430 633v368q0 47 41 58.5t68 -29.5l145 -205l145 205q27 41 68 30t41 -59v-368q0 -35 -29.5 -46.5t-58.5 4t-29 42.5v203 l-88 -136q-18 -35 -49 -33.5t-49 33.5l-88 136v-203q0 -27 -30 -42.5t-58.5 -4t-28.5 46.5z" />
<glyph unicode="&#xe000;" horiz-adv-x="860" d="M0 860h860v-860h-860v860z" />
</font>
</defs>
</svg>
